<?xml version="1.0" encoding="utf-8" standalone="no"?>
<!DOCTYPE svg PUBLIC "-//W3C//DTD SVG 1.1//EN"
  "http://www.w3.org/Graphics/SVG/1.1/DTD/svg11.dtd">
<svg xmlns:xlink="http://www.w3.org/1999/xlink" width="1238.4pt" height="518.4pt" viewBox="0 0 1238.4 518.4" xmlns="http://www.w3.org/2000/svg" version="1.1">
 <metadata>
  <rdf:RDF xmlns:dc="http://purl.org/dc/elements/1.1/" xmlns:cc="http://creativecommons.org/ns#" xmlns:rdf="http://www.w3.org/1999/02/22-rdf-syntax-ns#">
   <cc:Work>
    <dc:type rdf:resource="http://purl.org/dc/dcmitype/StillImage"/>
    <dc:date>2026-09-01T00:04:00.084337</dc:date>
    <dc:format>image/svg+xml</dc:format>
    <dc:creator>
     <cc:Agent>
      <dc:title>Matplotlib v3.11.0, https://matplotlib.org/</dc:title>
     </cc:Agent>
    </dc:creator>
   </cc:Work>
  </rdf:RDF>
 </metadata>
 <defs>
  <style type="text/css">*{stroke-linejoin: round; stroke-linecap: butt}</style>
 </defs>
 <g id="figure_1">
  <g id="patch_1">
   <path d="M 0 518.4 
L 1238.4 518.4 
L 1238.4 0 
L 0 0 
L 0 518.4 
z
" style="fill: none; opacity: 0"/>
  </g>
  <g id="axes_1">
   <g id="patch_2">
    <path d="M 54.7092 302.4108 
L 239.0508 302.4108 
Q 254.8908 302.4108 254.8908 286.5708 
L 254.8908 138.2292 
Q 254.8908 122.3892 239.0508 122.3892 
L 54.7092 122.3892 
Q 38.8692 122.3892 38.8692 138.2292 
L 38.8692 286.5708 
Q 38.8692 302.4108 54.7092 302.4108 
z
" clip-path="url(#p1eded987b0)" style="fill: #f8fbff; stroke: #83b3e8; stroke-width: 2; stroke-linejoin: miter"/>
   </g>
   <g id="patch_3">
    <path d="M 289.4292 302.4108 
L 476.6508 302.4108 
Q 491.0508 302.4108 491.0508 288.0108 
L 491.0508 136.7892 
Q 491.0508 122.3892 476.6508 122.3892 
L 289.4292 122.3892 
Q 275.0292 122.3892 275.0292 136.7892 
L 275.0292 288.0108 
Q 275.0292 302.4108 289.4292 302.4108 
z
" clip-path="url(#p1eded987b0)" style="fill: #fffafb; stroke: #eda3aa; stroke-width: 2; stroke-linejoin: miter"/>
   </g>
   <g id="patch_4">
    <path d="M 525.5892 132.4908 
L 573.1308 132.4908 
Q 580.3308 132.4908 580.3308 125.2908 
L 580.3308 117.3492 
Q 580.3308 110.1492 573.1308 110.1492 
L 525.5892 110.1492 
Q 518.3892 110.1492 518.3892 117.3492 
L 518.3892 125.2908 
Q 518.3892 132.4908 525.5892 132.4908 
z
" clip-path="url(#p1eded987b0)" style="fill: #fdeff0; stroke: #f2a1a7; stroke-width: 1.5; stroke-linejoin: miter"/>
   </g>
   <g id="patch_5">
    <path d="M 525.5892 162.7308 
L 573.1308 162.7308 
Q 580.3308 162.7308 580.3308 155.5308 
L 580.3308 147.5892 
Q 580.3308 140.3892 573.1308 140.3892 
L 525.5892 140.3892 
Q 518.3892 140.3892 518.3892 147.5892 
L 518.3892 155.5308 
Q 518.3892 162.7308 525.5892 162.7308 
z
" clip-path="url(#p1eded987b0)" style="fill: #fdf4ed; stroke: #f6c295; stroke-width: 1.5; stroke-linejoin: miter"/>
   </g>
   <g id="patch_6">
    <path d="M 525.5892 192.9708 
L 573.1308 192.9708 
Q 580.3308 192.9708 580.3308 185.7708 
L 580.3308 177.8292 
Q 580.3308 170.6292 573.1308 170.6292 
L 525.5892 170.6292 
Q 518.3892 170.6292 518.3892 177.8292 
L 518.3892 185.7708 
Q 518.3892 192.9708 525.5892 192.9708 
z
" clip-path="url(#p1eded987b0)" style="fill: #fbf7ea; stroke: #e6d088; stroke-width: 1.5; stroke-linejoin: miter"/>
   </g>
   <g id="patch_7">
    <path d="M 525.5892 223.2108 
L 573.1308 223.2108 
Q 580.3308 223.2108 580.3308 216.0108 
L 580.3308 208.0692 
Q 580.3308 200.8692 573.1308 200.8692 
L 525.5892 200.8692 
Q 518.3892 200.8692 518.3892 208.0692 
L 518.3892 216.0108 
Q 518.3892 223.2108 525.5892 223.2108 
z
" clip-path="url(#p1eded987b0)" style="fill: #eef6f0; stroke: #9ccda9; stroke-width: 1.5; stroke-linejoin: miter"/>
   </g>
   <g id="patch_8">
    <path d="M 525.5892 253.4508 
L 573.1308 253.4508 
Q 580.3308 253.4508 580.3308 246.2508 
L 580.3308 238.3092 
Q 580.3308 231.1092 573.1308 231.1092 
L 525.5892 231.1092 
Q 518.3892 231.1092 518.3892 238.3092 
L 518.3892 246.2508 
Q 518.3892 253.4508 525.5892 253.4508 
z
" clip-path="url(#p1eded987b0)" style="fill: #ebf6f6; stroke: #8dc9cb; stroke-width: 1.5; stroke-linejoin: miter"/>
   </g>
   <g id="patch_9">
    <path d="M 525.5892 283.6908 
L 573.1308 283.6908 
Q 580.3308 283.6908 580.3308 276.4908 
L 580.3308 268.5492 
Q 580.3308 261.3492 573.1308 261.3492 
L 525.5892 261.3492 
Q 518.3892 261.3492 518.3892 268.5492 
L 518.3892 276.4908 
Q 518.3892 283.6908 525.5892 283.6908 
z
" clip-path="url(#p1eded987b0)" style="fill: #f3f0fb; stroke: #bba9e7; stroke-width: 1.5; stroke-linejoin: miter"/>
   </g>
   <g id="patch_10">
    <path d="M 525.5892 316.8108 
L 573.1308 316.8108 
Q 580.3308 316.8108 580.3308 309.6108 
L 580.3308 301.6692 
Q 580.3308 294.4692 573.1308 294.4692 
L 525.5892 294.4692 
Q 518.3892 294.4692 518.3892 301.6692 
L 518.3892 309.6108 
Q 518.3892 316.8108 525.5892 316.8108 
z
" clip-path="url(#p1eded987b0)" style="fill: #f2f4f7; stroke: #9ba3af; stroke-width: 1.5; stroke-linejoin: miter"/>
   </g>
   <g id="patch_11">
    <path d="M 51.8292 463.6908 
L 1186.5708 463.6908 
Q 1199.5308 463.6908 1199.5308 450.7308 
L 1199.5308 395.9892 
Q 1199.5308 383.0292 1186.5708 383.0292 
L 51.8292 383.0292 
Q 38.8692 383.0292 38.8692 395.9892 
L 38.8692 450.7308 
Q 38.8692 463.6908 51.8292 463.6908 
z
" clip-path="url(#p1eded987b0)" style="fill: #fbfcfe; stroke: #cad2df; stroke-width: 1.6; stroke-linejoin: miter"/>
   </g>
   <g id="patch_12">
    <path d="M 196.5492 450.0108 
L 352.0908 450.0108 
Q 361.4508 450.0108 361.4508 440.6508 
L 361.4508 417.5892 
Q 361.4508 408.2292 352.0908 408.2292 
L 196.5492 408.2292 
Q 187.1892 408.2292 187.1892 417.5892 
L 187.1892 440.6508 
Q 187.1892 450.0108 196.5492 450.0108 
z
" clip-path="url(#p1eded987b0)" style="fill: #fdecef; stroke: #ef9aa3; stroke-width: 1.5; stroke-linejoin: miter"/>
   </g>
   <g id="patch_13">
    <path d="M 390.9492 450.0108 
L 546.4908 450.0108 
Q 555.8508 450.0108 555.8508 440.6508 
L 555.8508 417.5892 
Q 555.8508 408.2292 546.4908 408.2292 
L 390.9492 408.2292 
Q 381.5892 408.2292 381.5892 417.5892 
L 381.5892 440.6508 
Q 381.5892 450.0108 390.9492 450.0108 
z
" clip-path="url(#p1eded987b0)" style="fill: #fdecef; stroke: #ef9aa3; stroke-width: 1.5; stroke-linejoin: miter"/>
   </g>
   <g id="patch_14">
    <path d="M 585.3492 450.0108 
L 740.8908 450.0108 
Q 750.2508 450.0108 750.2508 440.6508 
L 750.2508 417.5892 
Q 750.2508 408.2292 740.8908 408.2292 
L 585.3492 408.2292 
Q 575.9892 408.2292 575.9892 417.5892 
L 575.9892 440.6508 
Q 575.9892 450.0108 585.3492 450.0108 
z
" clip-path="url(#p1eded987b0)" style="fill: #fdecef; stroke: #ef9aa3; stroke-width: 1.5; stroke-linejoin: miter"/>
   </g>
   <g id="patch_15">
    <path d="M 148.883511 225.36 
Q 179.643495 225.36 208.614625 225.36 
" clip-path="url(#p1eded987b0)" style="fill: none; stroke: #b7c0ce; stroke-width: 1.6; stroke-linecap: round"/>
    <path d="M 204.614625 223.36 
L 208.614625 225.36 
L 204.614625 227.36 
z
" clip-path="url(#p1eded987b0)" style="fill: #b7c0ce; stroke: #b7c0ce; stroke-width: 1.6; stroke-linecap: round"/>
   </g>
   <g id="patch_16">
    <path d="M 146.88 223.356489 
Q 146.88 192.596505 146.88 163.625375 
" clip-path="url(#p1eded987b0)" style="fill: none; stroke: #b7c0ce; stroke-width: 1.6; stroke-linecap: round"/>
    <path d="M 144.88 167.625375 
L 146.88 163.625375 
L 148.88 167.625375 
z
" clip-path="url(#p1eded987b0)" style="fill: #b7c0ce; stroke: #b7c0ce; stroke-width: 1.6; stroke-linecap: round"/>
   </g>
   <g id="patch_17">
    <path d="M 145.299986 226.5889 
Q 132.136539 236.827136 120.385129 245.967122 
" clip-path="url(#p1eded987b0)" style="fill: none; stroke: #b7c0ce; stroke-width: 1.6; stroke-linecap: round"/>
    <path d="M 124.770419 245.090064 
L 120.385129 245.967122 
L 122.314657 241.932655 
z
" clip-path="url(#p1eded987b0)" style="fill: #b7c0ce; stroke: #b7c0ce; stroke-width: 1.6; stroke-linecap: round"/>
   </g>
   <g id="patch_18">
    <path d="M 385.038369 231.12 
Q 411.119191 231.12 435.411159 231.12 
" clip-path="url(#p1eded987b0)" style="fill: none; stroke: #b7c0ce; stroke-width: 1.6; stroke-linecap: round"/>
    <path d="M 431.411159 229.12 
L 435.411159 231.12 
L 431.411159 233.12 
z
" clip-path="url(#p1eded987b0)" style="fill: #b7c0ce; stroke: #b7c0ce; stroke-width: 1.6; stroke-linecap: round"/>
   </g>
   <g id="patch_19">
    <path d="M 383.04 229.121631 
Q 383.04 203.040809 383.04 178.748841 
" clip-path="url(#p1eded987b0)" style="fill: none; stroke: #b7c0ce; stroke-width: 1.6; stroke-linecap: round"/>
    <path d="M 381.04 182.748841 
L 383.04 178.748841 
L 385.04 182.748841 
z
" clip-path="url(#p1eded987b0)" style="fill: #b7c0ce; stroke: #b7c0ce; stroke-width: 1.6; stroke-linecap: round"/>
   </g>
   <g id="patch_20">
    <path d="M 381.463585 232.346101 
Q 370.404006 240.947995 360.756464 248.451639 
" clip-path="url(#p1eded987b0)" style="fill: none; stroke: #b7c0ce; stroke-width: 1.6; stroke-linecap: round"/>
    <path d="M 365.141754 247.574581 
L 360.756464 248.451639 
L 362.685991 244.417173 
z
" clip-path="url(#p1eded987b0)" style="fill: #b7c0ce; stroke: #b7c0ce; stroke-width: 1.6; stroke-linecap: round"/>
   </g>
   <g id="patch_21">
    <path d="M 618.559106 224.221813 
C 615.692789 229.612572 613.447938 235.311457 611.867741 241.208832 
C 610.287544 247.106208 609.3822 253.164012 609.169124 259.265705 
L 643.708071 260.471831 
C 643.829828 256.985149 644.347168 253.523547 645.250138 250.153618 
C 646.153108 246.78369 647.435879 243.527184 649.073775 240.44675 
z
" clip-path="url(#p1eded987b0)" style="fill: #e85d68; fill-opacity: 0.78; stroke: #ffffff; stroke-width: 2.2; stroke-linejoin: miter"/>
   </g>
   <g id="patch_22">
    <path d="M 647.027311 193.693402 
C 641.849627 196.928777 637.056088 200.741731 632.738909 205.058909 
C 628.421731 209.376088 624.608777 214.169627 621.373402 219.347311 
L 650.681944 237.66132 
C 652.53073 234.702644 654.70956 231.963479 657.17652 229.49652 
C 659.643479 227.02956 662.382644 224.85073 665.34132 223.001944 
z
" clip-path="url(#p1eded987b0)" style="fill: #ef9548; fill-opacity: 0.78; stroke: #ffffff; stroke-width: 2.2; stroke-linejoin: miter"/>
   </g>
   <g id="patch_23">
    <path d="M 686.945705 181.489124 
C 680.844012 181.7022 674.786208 182.607544 668.888832 184.187741 
C 662.991457 185.767938 657.292572 188.012789 651.901813 190.879106 
L 668.12675 221.393775 
C 671.207184 219.755879 674.46369 218.473108 677.833618 217.570138 
C 681.203547 216.667168 684.665149 216.149828 688.151831 216.028071 
z
" clip-path="url(#p1eded987b0)" style="fill: #d4ae32; fill-opacity: 0.78; stroke: #ffffff; stroke-width: 2.2; stroke-linejoin: miter"/>
   </g>
   <g id="patch_24">
    <path d="M 727.618187 190.879106 
C 722.227428 188.012789 716.528543 185.767938 710.631168 184.187741 
C 704.733792 182.607544 698.675988 181.7022 692.574295 181.489124 
L 691.368169 216.028071 
C 694.854851 216.149828 698.316453 216.667168 701.686382 217.570138 
C 705.05631 218.473108 708.312816 219.755879 711.39325 221.393775 
z
" clip-path="url(#p1eded987b0)" style="fill: #54a96b; fill-opacity: 0.78; stroke: #ffffff; stroke-width: 2.2; stroke-linejoin: miter"/>
   </g>
   <g id="patch_25">
    <path d="M 758.146598 219.347311 
C 754.911223 214.169627 751.098269 209.376088 746.781091 205.058909 
C 742.463912 200.741731 737.670373 196.928777 732.492689 193.693402 
L 714.17868 223.001944 
C 717.137356 224.85073 719.876521 227.02956 722.34348 229.49652 
C 724.81044 231.963479 726.98927 234.702644 728.838056 237.66132 
z
" clip-path="url(#p1eded987b0)" style="fill: #3aa2a6; fill-opacity: 0.78; stroke: #ffffff; stroke-width: 2.2; stroke-linejoin: miter"/>
   </g>
   <g id="patch_26">
    <path d="M 770.350876 259.265705 
C 770.1378 253.164012 769.232456 247.106208 767.652259 241.208832 
C 766.072062 235.311457 763.827211 229.612572 760.960894 224.221813 
L 730.446225 240.44675 
C 732.084121 243.527184 733.366892 246.78369 734.269862 250.153618 
C 735.172832 253.523547 735.690172 256.985149 735.811929 260.471831 
z
" clip-path="url(#p1eded987b0)" style="fill: #8a6bd6; fill-opacity: 0.78; stroke: #ffffff; stroke-width: 2.2; stroke-linejoin: miter"/>
   </g>
   <g id="patch_27">
    <path d="M 916.161112 245.644159 
C 914.859157 244.93431 913.477457 244.381669 912.045093 243.997869 
C 910.612728 243.614068 909.13982 243.401818 907.65737 243.365588 
L 907.235182 260.64043 
C 907.349217 260.643217 907.462518 260.659544 907.572699 260.689067 
C 907.682881 260.71859 907.789166 260.761101 907.889316 260.815705 
z
" clip-path="url(#p1eded987b0)" style="fill: #7567d8; fill-opacity: 0.59; stroke: #ffffff; stroke-width: 1.2; stroke-linejoin: miter"/>
   </g>
   <g id="patch_28">
    <path d="M 923.178471 252.3267 
C 922.40587 251.060976 921.485602 249.891524 920.437039 248.842961 
C 919.388476 247.794398 918.219024 246.87413 916.9533 246.101529 
L 907.950254 260.850887 
C 908.047617 260.910318 908.137575 260.981108 908.218234 261.061766 
C 908.298892 261.142425 908.369682 261.232383 908.429113 261.329746 
z
" clip-path="url(#p1eded987b0)" style="fill: #7567d8; fill-opacity: 0.866561; stroke: #ffffff; stroke-width: 1.2; stroke-linejoin: miter"/>
   </g>
   <g id="patch_29">
    <path d="M 925.914412 261.62263 
C 925.878182 260.14018 925.665932 258.667272 925.282131 257.234907 
C 924.898331 255.802543 924.34569 254.420843 923.635841 253.118888 
L 908.464295 261.390684 
C 908.518899 261.490834 908.56141 261.597119 908.590933 261.707301 
C 908.620456 261.817482 908.636783 261.930783 908.63957 262.044818 
z
" clip-path="url(#p1eded987b0)" style="fill: #7567d8; fill-opacity: 0.911742; stroke: #ffffff; stroke-width: 1.2; stroke-linejoin: miter"/>
   </g>
   <g id="patch_30">
    <path d="M 923.635841 271.041112 
C 924.34569 269.739157 924.898331 268.357457 925.282131 266.925093 
C 925.665932 265.492728 925.878182 264.01982 925.914412 262.53737 
L 908.63957 262.115182 
C 908.636783 262.229217 908.620456 262.342518 908.590933 262.452699 
C 908.56141 262.562881 908.518899 262.669166 908.464295 262.769316 
z
" clip-path="url(#p1eded987b0)" style="fill: #7567d8; fill-opacity: 0.687743; stroke: #ffffff; stroke-width: 1.2; stroke-linejoin: miter"/>
   </g>
   <g id="patch_31">
    <path d="M 916.9533 278.058471 
C 918.219024 277.28587 919.388476 276.365602 920.437039 275.317039 
C 921.485602 274.268476 922.40587 273.099024 923.178471 271.8333 
L 908.429113 262.830254 
C 908.369682 262.927617 908.298892 263.017575 908.218234 263.098234 
C 908.137575 263.178892 908.047617 263.249682 907.950254 263.309113 
z
" clip-path="url(#p1eded987b0)" style="fill: #7567d8; fill-opacity: 0.381968; stroke: #ffffff; stroke-width: 1.2; stroke-linejoin: miter"/>
   </g>
   <g id="patch_32">
    <path d="M 907.65737 280.794412 
C 909.13982 280.758182 910.612728 280.545932 912.045093 280.162131 
C 913.477457 279.778331 914.859157 279.22569 916.161112 278.515841 
L 907.889316 263.344295 
C 907.789166 263.398899 907.682881 263.44141 907.572699 263.470933 
C 907.462518 263.500456 907.349217 263.516783 907.235182 263.51957 
z
" clip-path="url(#p1eded987b0)" style="fill: #7567d8; fill-opacity: 0.25024; stroke: #ffffff; stroke-width: 1.2; stroke-linejoin: miter"/>
   </g>
   <g id="patch_33">
    <path d="M 898.238888 278.515841 
C 899.540843 279.22569 900.922543 279.778331 902.354907 280.162131 
C 903.787272 280.545932 905.26018 280.758182 906.74263 280.794412 
L 907.164818 263.51957 
C 907.050783 263.516783 906.937482 263.500456 906.827301 263.470933 
C 906.717119 263.44141 906.610834 263.398899 906.510684 263.344295 
z
" clip-path="url(#p1eded987b0)" style="fill: #7567d8; fill-opacity: 0.402767; stroke: #ffffff; stroke-width: 1.2; stroke-linejoin: miter"/>
   </g>
   <g id="patch_34">
    <path d="M 891.221529 271.8333 
C 891.99413 273.099024 892.914398 274.268476 893.962961 275.317039 
C 895.011524 276.365602 896.180976 277.28587 897.4467 278.058471 
L 906.449746 263.309113 
C 906.352383 263.249682 906.262425 263.178892 906.181766 263.098234 
C 906.101108 263.017575 906.030318 262.927617 905.970887 262.830254 
z
" clip-path="url(#p1eded987b0)" style="fill: #7567d8; fill-opacity: 0.711939; stroke: #ffffff; stroke-width: 1.2; stroke-linejoin: miter"/>
   </g>
   <g id="patch_35">
    <path d="M 888.485588 262.53737 
C 888.521818 264.01982 888.734068 265.492728 889.117869 266.925093 
C 889.501669 268.357457 890.05431 269.739157 890.764159 271.041112 
L 905.935705 262.769316 
C 905.881101 262.669166 905.83859 262.562881 905.809067 262.452699 
C 905.779544 262.342518 905.763217 262.229217 905.76043 262.115182 
z
" clip-path="url(#p1eded987b0)" style="fill: #7567d8; fill-opacity: 0.919093; stroke: #ffffff; stroke-width: 1.2; stroke-linejoin: miter"/>
   </g>
   <g id="patch_36">
    <path d="M 890.764159 253.118888 
C 890.05431 254.420843 889.501669 255.802543 889.117869 257.234907 
C 888.734068 258.667272 888.521818 260.14018 888.485588 261.62263 
L 905.76043 262.044818 
C 905.763217 261.930783 905.779544 261.817482 905.809067 261.707301 
C 905.83859 261.597119 905.881101 261.490834 905.935705 261.390684 
z
" clip-path="url(#p1eded987b0)" style="fill: #7567d8; fill-opacity: 0.850916; stroke: #ffffff; stroke-width: 1.2; stroke-linejoin: miter"/>
   </g>
   <g id="patch_37">
    <path d="M 897.4467 246.101529 
C 896.180976 246.87413 895.011524 247.794398 893.962961 248.842961 
C 892.914398 249.891524 891.99413 251.060976 891.221529 252.3267 
L 905.970887 261.329746 
C 906.030318 261.232383 906.101108 261.142425 906.181766 261.061766 
C 906.262425 260.981108 906.352383 260.910318 906.449746 260.850887 
z
" clip-path="url(#p1eded987b0)" style="fill: #7567d8; fill-opacity: 0.564449; stroke: #ffffff; stroke-width: 1.2; stroke-linejoin: miter"/>
   </g>
   <g id="patch_38">
    <path d="M 906.74263 243.365588 
C 905.26018 243.401818 903.787272 243.614068 902.354907 243.997869 
C 900.922543 244.381669 899.540843 244.93431 898.238888 245.644159 
L 906.510684 260.815705 
C 906.610834 260.761101 906.717119 260.71859 906.827301 260.689067 
C 906.937482 260.659544 907.050783 260.643217 907.164818 260.64043 
z
" clip-path="url(#p1eded987b0)" style="fill: #7567d8; fill-opacity: 0.299358; stroke: #ffffff; stroke-width: 1.2; stroke-linejoin: miter"/>
   </g>
   <g id="patch_39">
    <path d="M 925.122223 229.208317 
C 922.518314 227.78862 919.754914 226.683339 916.890185 225.915737 
C 914.025456 225.148135 911.079641 224.723637 908.114741 224.651176 
L 907.692553 241.926018 
C 909.289037 241.965035 910.875246 242.193611 912.417792 242.606935 
C 913.960338 243.020259 915.448323 243.615411 916.850428 244.379863 
z
" clip-path="url(#p1eded987b0)" style="fill: #7567d8; fill-opacity: 0.912655; stroke: #ffffff; stroke-width: 1.2; stroke-linejoin: miter"/>
   </g>
   <g id="patch_40">
    <path d="M 939.156942 242.573399 
C 937.611739 240.041951 935.771205 237.703049 933.674078 235.605922 
C 931.576951 233.508795 929.238049 231.668261 926.706601 230.123058 
L 917.703554 244.872416 
C 919.066642 245.704448 920.326051 246.695505 921.455273 247.824727 
C 922.584495 248.953949 923.575552 250.213358 924.407584 251.576446 
z
" clip-path="url(#p1eded987b0)" style="fill: #7567d8; fill-opacity: 0.864889; stroke: #ffffff; stroke-width: 1.2; stroke-linejoin: miter"/>
   </g>
   <g id="patch_41">
    <path d="M 944.628824 261.165259 
C 944.556363 258.200359 944.131865 255.254544 943.364263 252.389815 
C 942.596661 249.525086 941.49138 246.761686 940.071683 244.157777 
L 924.900137 252.429572 
C 925.664589 253.831677 926.259741 255.319662 926.673065 256.862208 
C 927.086389 258.404754 927.314965 259.990963 927.353982 261.587447 
z
" clip-path="url(#p1eded987b0)" style="fill: #7567d8; fill-opacity: 0.587142; stroke: #ffffff; stroke-width: 1.2; stroke-linejoin: miter"/>
   </g>
   <g id="patch_42">
    <path d="M 940.071683 280.002223 
C 941.49138 277.398314 942.596661 274.634914 943.364263 271.770185 
C 944.131865 268.905456 944.556363 265.959641 944.628824 262.994741 
L 927.353982 262.572553 
C 927.314965 264.169037 927.086389 265.755246 926.673065 267.297792 
C 926.259741 268.840338 925.664589 270.328323 924.900137 271.730428 
z
" clip-path="url(#p1eded987b0)" style="fill: #7567d8; fill-opacity: 0.311786; stroke: #ffffff; stroke-width: 1.2; stroke-linejoin: miter"/>
   </g>
   <g id="patch_43">
    <path d="M 926.706601 294.036942 
C 929.238049 292.491739 931.576951 290.651205 933.674078 288.554078 
C 935.771205 286.456951 937.611739 284.118049 939.156942 281.586601 
L 924.407584 272.583554 
C 923.575552 273.946642 922.584495 275.206051 921.455273 276.335273 
C 920.326051 277.464495 919.066642 278.455552 917.703554 279.287584 
z
" clip-path="url(#p1eded987b0)" style="fill: #7567d8; fill-opacity: 0.269193; stroke: #ffffff; stroke-width: 1.2; stroke-linejoin: miter"/>
   </g>
   <g id="patch_44">
    <path d="M 908.114741 299.508824 
C 911.079641 299.436363 914.025456 299.011865 916.890185 298.244263 
C 919.754914 297.476661 922.518314 296.37138 925.122223 294.951683 
L 916.850428 279.780137 
C 915.448323 280.544589 913.960338 281.139741 912.417792 281.553065 
C 910.875246 281.966389 909.289037 282.194965 907.692553 282.233982 
z
" clip-path="url(#p1eded987b0)" style="fill: #7567d8; fill-opacity: 0.494999; stroke: #ffffff; stroke-width: 1.2; stroke-linejoin: miter"/>
   </g>
   <g id="patch_45">
    <path d="M 889.277777 294.951683 
C 891.881686 296.37138 894.645086 297.476661 897.509815 298.244263 
C 900.374544 299.011865 903.320359 299.436363 906.285259 299.508824 
L 906.707447 282.233982 
C 905.110963 282.194965 903.524754 281.966389 901.982208 281.553065 
C 900.439662 281.139741 898.951677 280.544589 897.549572 279.780137 
z
" clip-path="url(#p1eded987b0)" style="fill: #7567d8; fill-opacity: 0.800285; stroke: #ffffff; stroke-width: 1.2; stroke-linejoin: miter"/>
   </g>
   <g id="patch_46">
    <path d="M 875.243058 281.586601 
C 876.788261 284.118049 878.628795 286.456951 880.725922 288.554078 
C 882.823049 290.651205 885.161951 292.491739 887.693399 294.036942 
L 896.696446 279.287584 
C 895.333358 278.455552 894.073949 277.464495 892.944727 276.335273 
C 891.815505 275.206051 890.824448 273.946642 889.992416 272.583554 
z
" clip-path="url(#p1eded987b0)" style="fill: #7567d8; fill-opacity: 0.92964; stroke: #ffffff; stroke-width: 1.2; stroke-linejoin: miter"/>
   </g>
   <g id="patch_47">
    <path d="M 869.771176 262.994741 
C 869.843637 265.959641 870.268135 268.905456 871.035737 271.770185 
C 871.803339 274.634914 872.90862 277.398314 874.328317 280.002223 
L 889.499863 271.730428 
C 888.735411 270.328323 888.140259 268.840338 887.726935 267.297792 
C 887.313611 265.755246 887.085035 264.169037 887.046018 262.572553 
z
" clip-path="url(#p1eded987b0)" style="fill: #7567d8; fill-opacity: 0.77484; stroke: #ffffff; stroke-width: 1.2; stroke-linejoin: miter"/>
   </g>
   <g id="patch_48">
    <path d="M 874.328317 244.157777 
C 872.90862 246.761686 871.803339 249.525086 871.035737 252.389815 
C 870.268135 255.254544 869.843637 258.200359 869.771176 261.165259 
L 887.046018 261.587447 
C 887.085035 259.990963 887.313611 258.404754 887.726935 256.862208 
C 888.140259 255.319662 888.735411 253.831677 889.499863 252.429572 
z
" clip-path="url(#p1eded987b0)" style="fill: #7567d8; fill-opacity: 0.465397; stroke: #ffffff; stroke-width: 1.2; stroke-linejoin: miter"/>
   </g>
   <g id="patch_49">
    <path d="M 887.693399 230.123058 
C 885.161951 231.668261 882.823049 233.508795 880.725922 235.605922 
C 878.628795 237.703049 876.788261 240.041951 875.243058 242.573399 
L 889.992416 251.576446 
C 890.824448 250.213358 891.815505 248.953949 892.944727 247.824727 
C 894.073949 246.695505 895.333358 245.704448 896.696446 244.872416 
z
" clip-path="url(#p1eded987b0)" style="fill: #7567d8; fill-opacity: 0.260201; stroke: #ffffff; stroke-width: 1.2; stroke-linejoin: miter"/>
   </g>
   <g id="patch_50">
    <path d="M 906.285259 224.651176 
C 903.320359 224.723637 900.374544 225.148135 897.509815 225.915737 
C 894.645086 226.683339 891.881686 227.78862 889.277777 229.208317 
L 897.549572 244.379863 
C 898.951677 243.615411 900.439662 243.020259 901.982208 242.606935 
C 903.524754 242.193611 905.110963 241.965035 906.707447 241.926018 
z
" clip-path="url(#p1eded987b0)" style="fill: #7567d8; fill-opacity: 0.330926; stroke: #ffffff; stroke-width: 1.2; stroke-linejoin: miter"/>
   </g>
   <g id="patch_51">
    <path d="M 934.083335 212.772476 
C 930.177471 210.64293 926.03237 208.985008 921.735278 207.833606 
C 917.438185 206.682203 913.019461 206.045455 908.572111 205.936764 
L 908.149923 223.211606 
C 911.228858 223.286854 914.287974 223.727679 917.262884 224.524804 
C 920.237795 225.321929 923.10748 226.469721 925.811539 227.944022 
z
" clip-path="url(#p1eded987b0)" style="fill: #7567d8; fill-opacity: 0.793481; stroke: #ffffff; stroke-width: 1.2; stroke-linejoin: miter"/>
   </g>
   <g id="patch_52">
    <path d="M 955.135413 232.820099 
C 952.817609 229.022927 950.056807 225.514573 946.911117 222.368883 
C 943.765427 219.223193 940.257073 216.462391 936.459901 214.144587 
L 927.456854 228.893945 
C 930.085666 230.498579 932.514526 232.409903 934.692312 234.587688 
C 936.870097 236.765474 938.781421 239.194334 940.386055 241.823146 
z
" clip-path="url(#p1eded987b0)" style="fill: #7567d8; fill-opacity: 0.486796; stroke: #ffffff; stroke-width: 1.2; stroke-linejoin: miter"/>
   </g>
   <g id="patch_53">
    <path d="M 963.343236 260.707889 
C 963.234545 256.260539 962.597797 251.841815 961.446394 247.544722 
C 960.294992 243.24763 958.63707 239.102529 956.507524 235.196665 
L 941.335978 243.468461 
C 942.810279 246.17252 943.958071 249.042205 944.755196 252.017116 
C 945.552321 254.992026 945.993146 258.051142 946.068394 261.130077 
z
" clip-path="url(#p1eded987b0)" style="fill: #7567d8; fill-opacity: 0.266455; stroke: #ffffff; stroke-width: 1.2; stroke-linejoin: miter"/>
   </g>
   <g id="patch_54">
    <path d="M 956.507524 288.963335 
C 958.63707 285.057471 960.294992 280.91237 961.446394 276.615278 
C 962.597797 272.318185 963.234545 267.899461 963.343236 263.452111 
L 946.068394 263.029923 
C 945.993146 266.108858 945.552321 269.167974 944.755196 272.142884 
C 943.958071 275.117795 942.810279 277.98748 941.335978 280.691539 
z
" clip-path="url(#p1eded987b0)" style="fill: #7567d8; fill-opacity: 0.316803; stroke: #ffffff; stroke-width: 1.2; stroke-linejoin: miter"/>
   </g>
   <g id="patch_55">
    <path d="M 936.459901 310.015413 
C 940.257073 307.697609 943.765427 304.936807 946.911117 301.791117 
C 950.056807 298.645427 952.817609 295.137073 955.135413 291.339901 
L 940.386055 282.336854 
C 938.781421 284.965666 936.870097 287.394526 934.692312 289.572312 
C 932.514526 291.750097 930.085666 293.661421 927.456854 295.266055 
z
" clip-path="url(#p1eded987b0)" style="fill: #7567d8; fill-opacity: 0.595717; stroke: #ffffff; stroke-width: 1.2; stroke-linejoin: miter"/>
   </g>
   <g id="patch_56">
    <path d="M 908.572111 318.223236 
C 913.019461 318.114545 917.438185 317.477797 921.735278 316.326394 
C 926.03237 315.174992 930.177471 313.51707 934.083335 311.387524 
L 925.811539 296.215978 
C 923.10748 297.690279 920.237795 298.838071 917.262884 299.635196 
C 914.287974 300.432321 911.228858 300.873146 908.149923 300.948394 
z
" clip-path="url(#p1eded987b0)" style="fill: #7567d8; fill-opacity: 0.869847; stroke: #ffffff; stroke-width: 1.2; stroke-linejoin: miter"/>
   </g>
   <g id="patch_57">
    <path d="M 880.316665 311.387524 
C 884.222529 313.51707 888.36763 315.174992 892.664722 316.326394 
C 896.961815 317.477797 901.380539 318.114545 905.827889 318.223236 
L 906.250077 300.948394 
C 903.171142 300.873146 900.112026 300.432321 897.137116 299.635196 
C 894.162205 298.838071 891.29252 297.690279 888.588461 296.215978 
z
" clip-path="url(#p1eded987b0)" style="fill: #7567d8; fill-opacity: 0.909848; stroke: #ffffff; stroke-width: 1.2; stroke-linejoin: miter"/>
   </g>
   <g id="patch_58">
    <path d="M 859.264587 291.339901 
C 861.582391 295.137073 864.343193 298.645427 867.488883 301.791117 
C 870.634573 304.936807 874.142927 307.697609 877.940099 310.015413 
L 886.943146 295.266055 
C 884.314334 293.661421 881.885474 291.750097 879.707688 289.572312 
C 877.529903 287.394526 875.618579 284.965666 874.013945 282.336854 
z
" clip-path="url(#p1eded987b0)" style="fill: #7567d8; fill-opacity: 0.682253; stroke: #ffffff; stroke-width: 1.2; stroke-linejoin: miter"/>
   </g>
   <g id="patch_59">
    <path d="M 851.056764 263.452111 
C 851.165455 267.899461 851.802203 272.318185 852.953606 276.615278 
C 854.105008 280.91237 855.76293 285.057471 857.892476 288.963335 
L 873.064022 280.691539 
C 871.589721 277.98748 870.441929 275.117795 869.644804 272.142884 
C 868.847679 269.167974 868.406854 266.108858 868.331606 263.029923 
z
" clip-path="url(#p1eded987b0)" style="fill: #7567d8; fill-opacity: 0.377476; stroke: #ffffff; stroke-width: 1.2; stroke-linejoin: miter"/>
   </g>
   <g id="patch_60">
    <path d="M 857.892476 235.196665 
C 855.76293 239.102529 854.105008 243.24763 852.953606 247.544722 
C 851.802203 251.841815 851.165455 256.260539 851.056764 260.707889 
L 868.331606 261.130077 
C 868.406854 258.051142 868.847679 254.992026 869.644804 252.017116 
C 870.441929 249.042205 871.589721 246.17252 873.064022 243.468461 
z
" clip-path="url(#p1eded987b0)" style="fill: #7567d8; fill-opacity: 0.250503; stroke: #ffffff; stroke-width: 1.2; stroke-linejoin: miter"/>
   </g>
   <g id="patch_61">
    <path d="M 877.940099 214.144587 
C 874.142927 216.462391 870.634573 219.223193 867.488883 222.368883 
C 864.343193 225.514573 861.582391 229.022927 859.264587 232.820099 
L 874.013945 241.823146 
C 875.618579 239.194334 877.529903 236.765474 879.707688 234.587688 
C 881.885474 232.409903 884.314334 230.498579 886.943146 228.893945 
z
" clip-path="url(#p1eded987b0)" style="fill: #7567d8; fill-opacity: 0.407565; stroke: #ffffff; stroke-width: 1.2; stroke-linejoin: miter"/>
   </g>
   <g id="patch_62">
    <path d="M 905.827889 205.936764 
C 901.380539 206.045455 896.961815 206.682203 892.664722 207.833606 
C 888.36763 208.985008 884.222529 210.64293 880.316665 212.772476 
L 888.588461 227.944022 
C 891.29252 226.469721 894.162205 225.321929 897.137116 224.524804 
C 900.112026 223.727679 903.171142 223.286854 906.250077 223.211606 
z
" clip-path="url(#p1eded987b0)" style="fill: #7567d8; fill-opacity: 0.717258; stroke: #ffffff; stroke-width: 1.2; stroke-linejoin: miter"/>
   </g>
   <g id="patch_63">
    <path d="M 943.044446 196.336635 
C 937.836628 193.49724 932.309827 191.286678 926.58037 189.751474 
C 920.850913 188.216271 914.959281 187.367274 909.029482 187.222352 
L 908.607293 204.497194 
C 913.168678 204.608672 917.700702 205.261747 922.107977 206.442672 
C 926.515252 207.623598 930.766637 209.324031 934.772651 211.508181 
z
" clip-path="url(#p1eded987b0)" style="fill: #7567d8; fill-opacity: 0.395669; stroke: #ffffff; stroke-width: 1.2; stroke-linejoin: miter"/>
   </g>
   <g id="patch_64">
    <path d="M 971.113884 223.066799 
C 968.023478 218.003902 964.34241 213.326098 960.148156 209.131844 
C 955.953902 204.93759 951.276098 201.256522 946.213201 198.166116 
L 937.210155 212.915474 
C 941.104691 215.292709 944.703002 218.1243 947.929351 221.350649 
C 951.1557 224.576998 953.987291 228.175309 956.364526 232.069845 
z
" clip-path="url(#p1eded987b0)" style="fill: #7567d8; fill-opacity: 0.250026; stroke: #ffffff; stroke-width: 1.2; stroke-linejoin: miter"/>
   </g>
   <g id="patch_65">
    <path d="M 982.057648 260.250518 
C 981.912726 254.320719 981.063729 248.429087 979.528526 242.69963 
C 977.993322 236.970173 975.78276 231.443372 972.943365 226.235554 
L 957.771819 234.507349 
C 959.955969 238.513363 961.656402 242.764748 962.837328 247.172023 
C 964.018253 251.579298 964.671328 256.111322 964.782806 260.672707 
z
" clip-path="url(#p1eded987b0)" style="fill: #7567d8; fill-opacity: 0.388817; stroke: #ffffff; stroke-width: 1.2; stroke-linejoin: miter"/>
   </g>
   <g id="patch_66">
    <path d="M 972.943365 297.924446 
C 975.78276 292.716628 977.993322 287.189827 979.528526 281.46037 
C 981.063729 275.730913 981.912726 269.839281 982.057648 263.909482 
L 964.782806 263.487293 
C 964.671328 268.048678 964.018253 272.580702 962.837328 276.987977 
C 961.656402 281.395252 959.955969 285.646637 957.771819 289.652651 
z
" clip-path="url(#p1eded987b0)" style="fill: #7567d8; fill-opacity: 0.695924; stroke: #ffffff; stroke-width: 1.2; stroke-linejoin: miter"/>
   </g>
   <g id="patch_67">
    <path d="M 946.213201 325.993884 
C 951.276098 322.903478 955.953902 319.22241 960.148156 315.028156 
C 964.34241 310.833902 968.023478 306.156098 971.113884 301.093201 
L 956.364526 292.090155 
C 953.987291 295.984691 951.1557 299.583002 947.929351 302.809351 
C 944.703002 306.0357 941.104691 308.867291 937.210155 311.244526 
z
" clip-path="url(#p1eded987b0)" style="fill: #7567d8; fill-opacity: 0.914412; stroke: #ffffff; stroke-width: 1.2; stroke-linejoin: miter"/>
   </g>
   <g id="patch_68">
    <path d="M 909.029482 336.937648 
C 914.959281 336.792726 920.850913 335.943729 926.58037 334.408526 
C 932.309827 332.873322 937.836628 330.66276 943.044446 327.823365 
L 934.772651 312.651819 
C 930.766637 314.835969 926.515252 316.536402 922.107977 317.717328 
C 917.700702 318.898253 913.168678 319.551328 908.607293 319.662806 
z
" clip-path="url(#p1eded987b0)" style="fill: #7567d8; fill-opacity: 0.861486; stroke: #ffffff; stroke-width: 1.2; stroke-linejoin: miter"/>
   </g>
   <g id="patch_69">
    <path d="M 871.355554 327.823365 
C 876.563372 330.66276 882.090173 332.873322 887.81963 334.408526 
C 893.549087 335.943729 899.440719 336.792726 905.370518 336.937648 
L 905.792707 319.662806 
C 901.231322 319.551328 896.699298 318.898253 892.292023 317.717328 
C 887.884748 316.536402 883.633363 314.835969 879.627349 312.651819 
z
" clip-path="url(#p1eded987b0)" style="fill: #7567d8; fill-opacity: 0.581425; stroke: #ffffff; stroke-width: 1.2; stroke-linejoin: miter"/>
   </g>
   <g id="patch_70">
    <path d="M 843.286116 301.093201 
C 846.376522 306.156098 850.05759 310.833902 854.251844 315.028156 
C 858.446098 319.22241 863.123902 322.903478 868.186799 325.993884 
L 877.189845 311.244526 
C 873.295309 308.867291 869.696998 306.0357 866.470649 302.809351 
C 863.2443 299.583002 860.412709 295.984691 858.035474 292.090155 
z
" clip-path="url(#p1eded987b0)" style="fill: #7567d8; fill-opacity: 0.308539; stroke: #ffffff; stroke-width: 1.2; stroke-linejoin: miter"/>
   </g>
   <g id="patch_71">
    <path d="M 832.342352 263.909482 
C 832.487274 269.839281 833.336271 275.730913 834.871474 281.46037 
C 836.406678 287.189827 838.61724 292.716628 841.456635 297.924446 
L 856.628181 289.652651 
C 854.444031 285.646637 852.743598 281.395252 851.562672 276.987977 
C 850.381747 272.580702 849.728672 268.048678 849.617194 263.487293 
z
" clip-path="url(#p1eded987b0)" style="fill: #7567d8; fill-opacity: 0.271132; stroke: #ffffff; stroke-width: 1.2; stroke-linejoin: miter"/>
   </g>
   <g id="patch_72">
    <path d="M 841.456635 226.235554 
C 838.61724 231.443372 836.406678 236.970173 834.871474 242.69963 
C 833.336271 248.429087 832.487274 254.320719 832.342352 260.250518 
L 849.617194 260.672707 
C 849.728672 256.111322 850.381747 251.579298 851.562672 247.172023 
C 852.743598 242.764748 854.444031 238.513363 856.628181 234.507349 
z
" clip-path="url(#p1eded987b0)" style="fill: #7567d8; fill-opacity: 0.500501; stroke: #ffffff; stroke-width: 1.2; stroke-linejoin: miter"/>
   </g>
   <g id="patch_73">
    <path d="M 868.186799 198.166116 
C 863.123902 201.256522 858.446098 204.93759 854.251844 209.131844 
C 850.05759 213.326098 846.376522 218.003902 843.286116 223.066799 
L 858.035474 232.069845 
C 860.412709 228.175309 863.2443 224.576998 866.470649 221.350649 
C 869.696998 218.1243 873.295309 215.292709 877.189845 212.915474 
z
" clip-path="url(#p1eded987b0)" style="fill: #7567d8; fill-opacity: 0.804748; stroke: #ffffff; stroke-width: 1.2; stroke-linejoin: miter"/>
   </g>
   <g id="patch_74">
    <path d="M 905.370518 187.222352 
C 899.440719 187.367274 893.549087 188.216271 887.81963 189.751474 
C 882.090173 191.286678 876.563372 193.49724 871.355554 196.336635 
L 879.627349 211.508181 
C 883.633363 209.324031 887.884748 207.623598 892.292023 206.442672 
C 896.699298 205.261747 901.231322 204.608672 905.792707 204.497194 
z
" clip-path="url(#p1eded987b0)" style="fill: #7567d8; fill-opacity: 0.929329; stroke: #ffffff; stroke-width: 1.2; stroke-linejoin: miter"/>
   </g>
   <g id="patch_75">
    <path d="M 1088.964013 252.72 
L 1072.752018 243.36 
L 1056.540022 252.72 
L 1056.540022 271.44 
L 1072.752018 280.8 
L 1088.964013 271.44 
z
" clip-path="url(#p1eded987b0)" style="fill: #e79b42; fill-opacity: 0.290556; stroke: #ffffff; stroke-width: 2; stroke-linejoin: miter"/>
   </g>
   <g id="patch_76">
    <path d="M 1105.176009 224.64 
L 1088.964013 215.28 
L 1072.752018 224.64 
L 1072.752018 243.36 
L 1088.964013 252.72 
L 1105.176009 243.36 
z
" clip-path="url(#p1eded987b0)" style="fill: #e79b42; fill-opacity: 0.393835; stroke: #ffffff; stroke-width: 2; stroke-linejoin: miter"/>
   </g>
   <g id="patch_77">
    <path d="M 1121.388004 196.56 
L 1105.176009 187.2 
L 1088.964013 196.56 
L 1088.964013 215.28 
L 1105.176009 224.64 
L 1121.388004 215.28 
z
" clip-path="url(#p1eded987b0)" style="fill: #e79b42; fill-opacity: 0.532259; stroke: #ffffff; stroke-width: 2; stroke-linejoin: miter"/>
   </g>
   <g id="patch_78">
    <path d="M 1105.176009 280.8 
L 1088.964013 271.44 
L 1072.752018 280.8 
L 1072.752018 299.52 
L 1088.964013 308.88 
L 1105.176009 299.52 
z
" clip-path="url(#p1eded987b0)" style="fill: #e79b42; fill-opacity: 0.250096; stroke: #ffffff; stroke-width: 2; stroke-linejoin: miter"/>
   </g>
   <g id="patch_79">
    <path d="M 1121.388004 252.72 
L 1105.176009 243.36 
L 1088.964013 252.72 
L 1088.964013 271.44 
L 1105.176009 280.8 
L 1121.388004 271.44 
z
" clip-path="url(#p1eded987b0)" style="fill: #e79b42; fill-opacity: 0.290556; stroke: #ffffff; stroke-width: 2; stroke-linejoin: miter"/>
   </g>
   <g id="patch_80">
    <path d="M 1137.6 224.64 
L 1121.388004 215.28 
L 1105.176009 224.64 
L 1105.176009 243.36 
L 1121.388004 252.72 
L 1137.6 243.36 
z
" clip-path="url(#p1eded987b0)" style="fill: #e79b42; fill-opacity: 0.532259; stroke: #ffffff; stroke-width: 2; stroke-linejoin: miter"/>
   </g>
   <g id="patch_81">
    <path d="M 1153.811996 196.56 
L 1137.6 187.2 
L 1121.388004 196.56 
L 1121.388004 215.28 
L 1137.6 224.64 
L 1153.811996 215.28 
z
" clip-path="url(#p1eded987b0)" style="fill: #e79b42; fill-opacity: 0.668739; stroke: #ffffff; stroke-width: 2; stroke-linejoin: miter"/>
   </g>
   <g id="patch_82">
    <path d="M 1121.388004 308.88 
L 1105.176009 299.52 
L 1088.964013 308.88 
L 1088.964013 327.6 
L 1105.176009 336.96 
L 1121.388004 327.6 
z
" clip-path="url(#p1eded987b0)" style="fill: #e79b42; fill-opacity: 0.283296; stroke: #ffffff; stroke-width: 2; stroke-linejoin: miter"/>
   </g>
   <g id="patch_83">
    <path d="M 1137.6 280.8 
L 1121.388004 271.44 
L 1105.176009 280.8 
L 1105.176009 299.52 
L 1121.388004 308.88 
L 1137.6 299.52 
z
" clip-path="url(#p1eded987b0)" style="fill: #e79b42; fill-opacity: 0.283296; stroke: #ffffff; stroke-width: 2; stroke-linejoin: miter"/>
   </g>
   <g id="patch_84">
    <path d="M 1153.811996 252.72 
L 1137.6 243.36 
L 1121.388004 252.72 
L 1121.388004 271.44 
L 1137.6 280.8 
L 1153.811996 271.44 
z
" clip-path="url(#p1eded987b0)" style="fill: #e79b42; fill-opacity: 0.15; stroke: #ffffff; stroke-width: 2; stroke-linejoin: miter"/>
   </g>
   <g id="patch_85">
    <path d="M 1170.023991 224.64 
L 1153.811996 215.28 
L 1137.6 224.64 
L 1137.6 243.36 
L 1153.811996 252.72 
L 1170.023991 243.36 
z
" clip-path="url(#p1eded987b0)" style="fill: #e79b42; fill-opacity: 0.766704; stroke: #ffffff; stroke-width: 2; stroke-linejoin: miter"/>
   </g>
   <g id="patch_86">
    <path d="M 1186.235987 196.56 
L 1170.023991 187.2 
L 1153.811996 196.56 
L 1153.811996 215.28 
L 1170.023991 224.64 
L 1186.235987 215.28 
z
" clip-path="url(#p1eded987b0)" style="fill: #e79b42; fill-opacity: 0.766704; stroke: #ffffff; stroke-width: 2; stroke-linejoin: miter"/>
   </g>
   <g id="patch_87">
    <path d="M 1153.811996 308.88 
L 1137.6 299.52 
L 1121.388004 308.88 
L 1121.388004 327.6 
L 1137.6 336.96 
L 1153.811996 327.6 
z
" clip-path="url(#p1eded987b0)" style="fill: #e79b42; fill-opacity: 0.381261; stroke: #ffffff; stroke-width: 2; stroke-linejoin: miter"/>
   </g>
   <g id="patch_88">
    <path d="M 1170.023991 280.8 
L 1153.811996 271.44 
L 1137.6 280.8 
L 1137.6 299.52 
L 1153.811996 308.88 
L 1170.023991 299.52 
z
" clip-path="url(#p1eded987b0)" style="fill: #e79b42; fill-opacity: 0.517741; stroke: #ffffff; stroke-width: 2; stroke-linejoin: miter"/>
   </g>
   <g id="patch_89">
    <path d="M 1186.235987 252.72 
L 1170.023991 243.36 
L 1153.811996 252.72 
L 1153.811996 271.44 
L 1170.023991 280.8 
L 1186.235987 271.44 
z
" clip-path="url(#p1eded987b0)" style="fill: #e79b42; fill-opacity: 0.759444; stroke: #ffffff; stroke-width: 2; stroke-linejoin: miter"/>
   </g>
   <g id="patch_90">
    <path d="M 1202.447982 224.64 
L 1186.235987 215.28 
L 1170.023991 224.64 
L 1170.023991 243.36 
L 1186.235987 252.72 
L 1202.447982 243.36 
z
" clip-path="url(#p1eded987b0)" style="fill: #e79b42; fill-opacity: 0.799904; stroke: #ffffff; stroke-width: 2; stroke-linejoin: miter"/>
   </g>
   <g id="patch_91">
    <path d="M 1186.235987 308.88 
L 1170.023991 299.52 
L 1153.811996 308.88 
L 1153.811996 327.6 
L 1170.023991 336.96 
L 1186.235987 327.6 
z
" clip-path="url(#p1eded987b0)" style="fill: #e79b42; fill-opacity: 0.517741; stroke: #ffffff; stroke-width: 2; stroke-linejoin: miter"/>
   </g>
   <g id="patch_92">
    <path d="M 1202.447982 280.8 
L 1186.235987 271.44 
L 1170.023991 280.8 
L 1170.023991 299.52 
L 1186.235987 308.88 
L 1202.447982 299.52 
z
" clip-path="url(#p1eded987b0)" style="fill: #e79b42; fill-opacity: 0.656165; stroke: #ffffff; stroke-width: 2; stroke-linejoin: miter"/>
   </g>
   <g id="patch_93">
    <path d="M 1218.659978 252.72 
L 1202.447982 243.36 
L 1186.235987 252.72 
L 1186.235987 271.44 
L 1202.447982 280.8 
L 1218.659978 271.44 
z
" clip-path="url(#p1eded987b0)" style="fill: #e79b42; fill-opacity: 0.759444; stroke: #ffffff; stroke-width: 2; stroke-linejoin: miter"/>
   </g>
   <g id="text_1">
    <text style="font-weight: 700; font-size: 25px; font-family: 'DejaVu Sans', 'Bitstream Vera Sans', 'Computer Modern Sans Serif', 'Lucida Grande', 'Verdana', 'Geneva', 'Lucid', 'Arial', 'Helvetica', 'Avant Garde', sans-serif; text-anchor: start; fill: #263142" x="38.88" y="39.615117" transform="rotate(-0 38.88 39.615117)">Center Look</text>
   </g>
   <g id="text_2">
    <text style="font-size: 14px; font-family: 'DejaVu Sans', 'Bitstream Vera Sans', 'Computer Modern Sans Serif', 'Lucida Grande', 'Verdana', 'Geneva', 'Lucid', 'Arial', 'Helvetica', 'Avant Garde', sans-serif; text-anchor: start; fill: #667085" x="38.88" y="59.797266" transform="rotate(-0 38.88 59.797266)">pose probing from initial Hex tokens → adaptive local attention field</text>
   </g>
   <g id="text_3">
    <text style="font-weight: 600; font-size: 13.2px; font-family: 'DejaVu Sans', 'Bitstream Vera Sans', 'Computer Modern Sans Serif', 'Lucida Grande', 'Verdana', 'Geneva', 'Lucid', 'Arial', 'Helvetica', 'Avant Garde', sans-serif; text-anchor: middle; fill: #263142" x="146.88" y="148.869422" transform="rotate(-0 146.88 148.869422)">one token feature vector</text>
   </g>
   <g id="text_4">
    <text style="font-size: 10.5px; font-family: 'DejaVu Sans', 'Bitstream Vera Sans', 'Computer Modern Sans Serif', 'Lucida Grande', 'Verdana', 'Geneva', 'Lucid', 'Arial', 'Helvetica', 'Avant Garde', sans-serif; text-anchor: start; fill: #9ba3af" x="217.44" y="226.647539" transform="rotate(-0 217.44 226.647539)">x</text>
   </g>
   <g id="text_5">
    <text style="font-size: 10.5px; font-family: 'DejaVu Sans', 'Bitstream Vera Sans', 'Computer Modern Sans Serif', 'Lucida Grande', 'Verdana', 'Geneva', 'Lucid', 'Arial', 'Helvetica', 'Avant Garde', sans-serif; text-anchor: start; fill: #9ba3af" x="151.92" y="161.127539" transform="rotate(-0 151.92 161.127539)">y</text>
   </g>
   <g id="text_6">
    <text style="font-size: 10.5px; font-family: 'DejaVu Sans', 'Bitstream Vera Sans', 'Computer Modern Sans Serif', 'Lucida Grande', 'Verdana', 'Geneva', 'Lucid', 'Arial', 'Helvetica', 'Avant Garde', sans-serif; text-anchor: start; fill: #9ba3af" x="122.436" y="249.579539" transform="rotate(-0 122.436 249.579539)">z</text>
   </g>
   <g id="patch_94">
    <path d="M 146.88 228.456 
C 147.701069 228.456 148.488619 228.129786 149.069203 227.549203 
C 149.649786 226.968619 149.976 226.181069 149.976 225.36 
C 149.976 224.538931 149.649786 223.751381 149.069203 223.170797 
C 148.488619 222.590214 147.701069 222.264 146.88 222.264 
C 146.058931 222.264 145.271381 222.590214 144.690797 223.170797 
C 144.110214 223.751381 143.784 224.538931 143.784 225.36 
C 143.784 226.181069 144.110214 226.968619 144.690797 227.549203 
C 145.271381 228.129786 146.058931 228.456 146.88 228.456 
z
" clip-path="url(#p1eded987b0)" style="fill: #b7c0ce; stroke: #ffffff; stroke-linejoin: miter"/>
   </g>
   <g id="text_7">
    <!-- $z^{(0)}_{q,h,j}$ -->
    <g style="fill: #4c8eda" transform="translate(216.72 160.425)">
     <text>
      <tspan x="0" y="-0.671875" style="font-style: oblique; font-size: 13.5px; font-family: 'DejaVu Sans'; fill: #4c8eda">z</tspan>
      <tspan x="7.690205" y="-7.825" style="font-size: 9.45px; font-family: 'DejaVu Sans'; fill: #4c8eda">(</tspan>
      <tspan x="11.376997" y="-7.825" style="font-size: 9.45px; font-family: 'DejaVu Sans'; fill: #4c8eda">0</tspan>
      <tspan x="13.084717" y="3.971875" style="font-size: 9.45px; font-family: 'DejaVu Sans'; fill: #4c8eda">,</tspan>
      <tspan x="17.389375" y="-7.825" style="font-size: 9.45px; font-family: 'DejaVu Sans'; fill: #4c8eda">)</tspan>
      <tspan x="23.918994" y="3.971875" style="font-size: 9.45px; font-family: 'DejaVu Sans'; fill: #4c8eda">,</tspan>
      <tspan x="7.086182" y="3.971875" style="font-style: oblique; font-size: 9.45px; font-family: 'DejaVu Sans'; fill: #4c8eda">q</tspan>
      <tspan x="17.929688" y="3.971875" style="font-style: oblique; font-size: 9.45px; font-family: 'DejaVu Sans'; fill: #4c8eda">h</tspan>
      <tspan x="28.763965" y="3.971875" style="font-style: oblique; font-size: 9.45px; font-family: 'DejaVu Sans'; fill: #4c8eda">j</tspan>
     </text>
    </g>
   </g>
   <g id="text_8">
    <text style="font-size: 12.4px; font-family: 'DejaVu Sans', 'Bitstream Vera Sans', 'Computer Modern Sans Serif', 'Lucida Grande', 'Verdana', 'Geneva', 'Lucid', 'Arial', 'Helvetica', 'Avant Garde', sans-serif; text-anchor: middle; fill: #4c8eda" x="146.88" y="281.861578" transform="rotate(-0 146.88 281.861578)">3-D projection × 32 pairs</text>
   </g>
   <g id="text_9">
    <text style="font-size: 11.5px; font-family: 'DejaVu Sans', 'Bitstream Vera Sans', 'Computer Modern Sans Serif', 'Lucida Grande', 'Verdana', 'Geneva', 'Lucid', 'Arial', 'Helvetica', 'Avant Garde', sans-serif; text-anchor: middle; fill: #667085" x="146.88" y="297.467754" transform="rotate(-0 146.88 297.467754)">shown once; repeated for 3 heads</text>
   </g>
   <g id="text_10">
    <text style="font-size: 11.2px; font-family: 'DejaVu Sans', 'Bitstream Vera Sans', 'Computer Modern Sans Serif', 'Lucida Grande', 'Verdana', 'Geneva', 'Lucid', 'Arial', 'Helvetica', 'Avant Garde', sans-serif; text-anchor: middle; fill: #667085" x="264.96" y="191.549812" transform="rotate(-0 264.96 191.549812)">pairwise dot</text>
   </g>
   <g id="text_11">
    <text style="font-size: 11.2px; font-family: 'DejaVu Sans', 'Bitstream Vera Sans', 'Computer Modern Sans Serif', 'Lucida Grande', 'Verdana', 'Geneva', 'Lucid', 'Arial', 'Helvetica', 'Avant Garde', sans-serif; text-anchor: middle; fill: #667085" x="264.96" y="203.789375" transform="rotate(-0 264.96 203.789375)">+ sum over 32</text>
   </g>
   <g id="patch_95">
    <path d="M 258.319336 213.12 
Q 264.241153 213.12 267.256082 213.12 
" clip-path="url(#p1eded987b0)" style="fill: none; stroke: #9aa9bd; stroke-width: 2.6; stroke-linecap: round"/>
    <path d="M 261.256082 210.12 
L 267.256082 213.12 
L 261.256082 216.12 
z
" clip-path="url(#p1eded987b0)" style="fill: #9aa9bd; stroke: #9aa9bd; stroke-width: 2.6; stroke-linecap: round"/>
   </g>
   <g id="text_12">
    <text style="font-weight: 600; font-size: 13.2px; font-family: 'DejaVu Sans', 'Bitstream Vera Sans', 'Computer Modern Sans Serif', 'Lucida Grande', 'Verdana', 'Geneva', 'Lucid', 'Arial', 'Helvetica', 'Avant Garde', sans-serif; text-anchor: middle; fill: #263142" x="383.04" y="148.869422" transform="rotate(-0 383.04 148.869422)">six learned response vectors</text>
   </g>
   <g id="text_13">
    <text style="font-size: 10.5px; font-family: 'DejaVu Sans', 'Bitstream Vera Sans', 'Computer Modern Sans Serif', 'Lucida Grande', 'Verdana', 'Geneva', 'Lucid', 'Arial', 'Helvetica', 'Avant Garde', sans-serif; text-anchor: start; fill: #9ba3af" x="444.24" y="232.407539" transform="rotate(-0 444.24 232.407539)">x</text>
   </g>
   <g id="text_14">
    <text style="font-size: 10.5px; font-family: 'DejaVu Sans', 'Bitstream Vera Sans', 'Computer Modern Sans Serif', 'Lucida Grande', 'Verdana', 'Geneva', 'Lucid', 'Arial', 'Helvetica', 'Avant Garde', sans-serif; text-anchor: start; fill: #9ba3af" x="388.08" y="176.247539" transform="rotate(-0 388.08 176.247539)">y</text>
   </g>
   <g id="text_15">
    <text style="font-size: 10.5px; font-family: 'DejaVu Sans', 'Bitstream Vera Sans', 'Computer Modern Sans Serif', 'Lucida Grande', 'Verdana', 'Geneva', 'Lucid', 'Arial', 'Helvetica', 'Avant Garde', sans-serif; text-anchor: start; fill: #9ba3af" x="362.808" y="252.063539" transform="rotate(-0 362.808 252.063539)">z</text>
   </g>
   <g id="patch_96">
    <path d="M 383.04 234.216 
C 383.861069 234.216 384.648619 233.889786 385.229203 233.309203 
C 385.809786 232.728619 386.136 231.941069 386.136 231.12 
C 386.136 230.298931 385.809786 229.511381 385.229203 228.930797 
C 384.648619 228.350214 383.861069 228.024 383.04 228.024 
C 382.218931 228.024 381.431381 228.350214 380.850797 228.930797 
C 380.270214 229.511381 379.944 230.298931 379.944 231.12 
C 379.944 231.941069 380.270214 232.728619 380.850797 233.309203 
C 381.431381 233.889786 382.218931 234.216 383.04 234.216 
z
" clip-path="url(#p1eded987b0)" style="fill: #b7c0ce; stroke: #ffffff; stroke-linejoin: miter"/>
   </g>
   <g id="text_16">
    <!-- $W_{0}$ -->
    <g style="fill: #e85d68" transform="translate(426.5208 216.724036)">
     <text>
      <tspan x="0" y="-0.15625" style="font-style: oblique; font-size: 13.5px; font-family: 'DejaVu Sans'; fill: #e85d68">W</tspan>
      <tspan x="13.348389" y="1.868743" style="font-size: 9.45px; font-family: 'DejaVu Sans'; fill: #e85d68">0</tspan>
     </text>
    </g>
   </g>
   <g id="text_17">
    <!-- $W_{1}$ -->
    <g style="fill: #ef9548" transform="translate(409.5864 176.576836)">
     <text>
      <tspan x="0" y="-0.15625" style="font-style: oblique; font-size: 13.5px; font-family: 'DejaVu Sans'; fill: #ef9548">W</tspan>
      <tspan x="13.348389" y="1.868743" style="font-size: 9.45px; font-family: 'DejaVu Sans'; fill: #ef9548">1</tspan>
     </text>
    </g>
   </g>
   <g id="text_18">
    <!-- $W_{2}$ -->
    <g style="fill: #d4ae32" transform="translate(335.7432 198.292036)">
     <text>
      <tspan x="0" y="-0.15625" style="font-style: oblique; font-size: 13.5px; font-family: 'DejaVu Sans'; fill: #d4ae32">W</tspan>
      <tspan x="13.348389" y="1.868743" style="font-size: 9.45px; font-family: 'DejaVu Sans'; fill: #d4ae32">2</tspan>
     </text>
    </g>
   </g>
   <g id="text_19">
    <!-- $W_{3}$ -->
    <g style="fill: #54a96b" transform="translate(325.9512 226.948036)">
     <text>
      <tspan x="0" y="-0.15625" style="font-style: oblique; font-size: 13.5px; font-family: 'DejaVu Sans'; fill: #54a96b">W</tspan>
      <tspan x="13.348389" y="1.868743" style="font-size: 9.45px; font-family: 'DejaVu Sans'; fill: #54a96b">3</tspan>
     </text>
    </g>
   </g>
   <g id="text_20">
    <!-- $W_{4}$ -->
    <g style="fill: #3aa2a6" transform="translate(375.82848 263.623396)">
     <text>
      <tspan x="0" y="-0.15625" style="font-style: oblique; font-size: 13.5px; font-family: 'DejaVu Sans'; fill: #3aa2a6">W</tspan>
      <tspan x="13.348389" y="1.868743" style="font-size: 9.45px; font-family: 'DejaVu Sans'; fill: #3aa2a6">4</tspan>
     </text>
    </g>
   </g>
   <g id="text_21">
    <!-- $W_{5}$ -->
    <g style="fill: #8a6bd6" transform="translate(400.71168 270.765796)">
     <text>
      <tspan x="0" y="-0.15625" style="font-style: oblique; font-size: 13.5px; font-family: 'DejaVu Sans'; fill: #8a6bd6">W</tspan>
      <tspan x="13.348389" y="1.868743" style="font-size: 9.45px; font-family: 'DejaVu Sans'; fill: #8a6bd6">5</tspan>
     </text>
    </g>
   </g>
   <g id="text_22">
    <text style="font-size: 11.5px; font-family: 'DejaVu Sans', 'Bitstream Vera Sans', 'Computer Modern Sans Serif', 'Lucida Grande', 'Verdana', 'Geneva', 'Lucid', 'Arial', 'Helvetica', 'Avant Garde', sans-serif; text-anchor: middle; fill: #667085" x="383.04" y="288.837305" transform="rotate(-0 383.04 288.837305)">independent learned probes × 32 pairs</text>
   </g>
   <g id="patch_97">
    <path d="M 494.48127 213.12 
Q 503.282994 213.12 509.177831 213.12 
" clip-path="url(#p1eded987b0)" style="fill: none; stroke: #9aa9bd; stroke-width: 2.6; stroke-linecap: round"/>
    <path d="M 503.177831 210.12 
L 509.177831 213.12 
L 503.177831 216.12 
z
" clip-path="url(#p1eded987b0)" style="fill: #9aa9bd; stroke: #9aa9bd; stroke-width: 2.6; stroke-linecap: round"/>
   </g>
   <g id="text_23">
    <!-- $s_0$ -->
    <g style="fill: #e85d68" transform="translate(542.86 124.696953)">
     <text>
      <tspan x="0" y="-0.71875" style="font-style: oblique; font-size: 13px; font-family: 'DejaVu Sans'; fill: #e85d68">s</tspan>
      <tspan x="6.772949" y="1.231244" style="font-size: 9.1px; font-family: 'DejaVu Sans'; fill: #e85d68">0</tspan>
     </text>
    </g>
   </g>
   <g id="text_24">
    <!-- $s_1$ -->
    <g style="fill: #ef9548" transform="translate(542.86 154.936953)">
     <text>
      <tspan x="0" y="-0.71875" style="font-style: oblique; font-size: 13px; font-family: 'DejaVu Sans'; fill: #ef9548">s</tspan>
      <tspan x="6.772949" y="1.231244" style="font-size: 9.1px; font-family: 'DejaVu Sans'; fill: #ef9548">1</tspan>
     </text>
    </g>
   </g>
   <g id="text_25">
    <!-- $s_2$ -->
    <g style="fill: #d4ae32" transform="translate(542.86 185.176953)">
     <text>
      <tspan x="0" y="-0.71875" style="font-style: oblique; font-size: 13px; font-family: 'DejaVu Sans'; fill: #d4ae32">s</tspan>
      <tspan x="6.772949" y="1.231244" style="font-size: 9.1px; font-family: 'DejaVu Sans'; fill: #d4ae32">2</tspan>
     </text>
    </g>
   </g>
   <g id="text_26">
    <!-- $s_3$ -->
    <g style="fill: #54a96b" transform="translate(542.86 215.416953)">
     <text>
      <tspan x="0" y="-0.71875" style="font-style: oblique; font-size: 13px; font-family: 'DejaVu Sans'; fill: #54a96b">s</tspan>
      <tspan x="6.772949" y="1.231244" style="font-size: 9.1px; font-family: 'DejaVu Sans'; fill: #54a96b">3</tspan>
     </text>
    </g>
   </g>
   <g id="text_27">
    <!-- $s_4$ -->
    <g style="fill: #3aa2a6" transform="translate(542.86 245.656953)">
     <text>
      <tspan x="0" y="-0.71875" style="font-style: oblique; font-size: 13px; font-family: 'DejaVu Sans'; fill: #3aa2a6">s</tspan>
      <tspan x="6.772949" y="1.231244" style="font-size: 9.1px; font-family: 'DejaVu Sans'; fill: #3aa2a6">4</tspan>
     </text>
    </g>
   </g>
   <g id="text_28">
    <!-- $s_5$ -->
    <g style="fill: #8a6bd6" transform="translate(542.86 275.896953)">
     <text>
      <tspan x="0" y="-0.71875" style="font-style: oblique; font-size: 13px; font-family: 'DejaVu Sans'; fill: #8a6bd6">s</tspan>
      <tspan x="6.772949" y="1.231244" style="font-size: 9.1px; font-family: 'DejaVu Sans'; fill: #8a6bd6">5</tspan>
     </text>
    </g>
   </g>
   <g id="text_29">
    <text style="font-size: 11.5px; font-family: 'DejaVu Sans', 'Bitstream Vera Sans', 'Computer Modern Sans Serif', 'Lucida Grande', 'Verdana', 'Geneva', 'Lucid', 'Arial', 'Helvetica', 'Avant Garde', sans-serif; text-anchor: middle; fill: #69717e" x="549.36" y="308.627754" transform="rotate(-0 549.36 308.627754)">s null</text>
   </g>
   <g id="patch_98">
    <path d="M 585.199687 213.12 
Q 594.719453 213.12 601.33233 213.12 
" clip-path="url(#p1eded987b0)" style="fill: none; stroke: #9aa9bd; stroke-width: 2.6; stroke-linecap: round"/>
    <path d="M 595.33233 210.12 
L 601.33233 213.12 
L 595.33233 216.12 
z
" clip-path="url(#p1eded987b0)" style="fill: #9aa9bd; stroke: #9aa9bd; stroke-width: 2.6; stroke-linecap: round"/>
   </g>
   <g id="text_30">
    <!-- $p_0$ -->
    <g style="fill: #394152" transform="translate(629.792542 252.619418) rotate(-75)">
     <text>
      <tspan x="0" y="-0.5625" style="font-style: oblique; font-size: 11.5px; font-family: 'DejaVu Sans'; fill: #394152">p</tspan>
      <tspan x="7.299805" y="1.162494" style="font-size: 8.05px; font-family: 'DejaVu Sans'; fill: #394152">0</tspan>
     </text>
    </g>
   </g>
   <g id="text_31">
    <!-- $p_1$ -->
    <g style="fill: #394152" transform="translate(642.556949 223.903167) rotate(-45)">
     <text>
      <tspan x="0" y="-0.5625" style="font-style: oblique; font-size: 11.5px; font-family: 'DejaVu Sans'; fill: #394152">p</tspan>
      <tspan x="7.299805" y="1.162494" style="font-size: 8.05px; font-family: 'DejaVu Sans'; fill: #394152">1</tspan>
     </text>
    </g>
   </g>
   <g id="text_32">
    <!-- $p_2$ -->
    <g style="fill: #394152" transform="translate(667.969375 205.416367) rotate(-15)">
     <text>
      <tspan x="0" y="-0.5625" style="font-style: oblique; font-size: 11.5px; font-family: 'DejaVu Sans'; fill: #394152">p</tspan>
      <tspan x="7.299805" y="1.162494" style="font-size: 8.05px; font-family: 'DejaVu Sans'; fill: #394152">2</tspan>
     </text>
    </g>
   </g>
   <g id="text_33">
    <!-- $p_3$ -->
    <g style="fill: #394152" transform="translate(699.220582 202.112542) rotate(-345)">
     <text>
      <tspan x="0" y="-0.5625" style="font-style: oblique; font-size: 11.5px; font-family: 'DejaVu Sans'; fill: #394152">p</tspan>
      <tspan x="7.299805" y="1.162494" style="font-size: 8.05px; font-family: 'DejaVu Sans'; fill: #394152">3</tspan>
     </text>
    </g>
   </g>
   <g id="text_34">
    <!-- $p_4$ -->
    <g style="fill: #394152" transform="translate(727.936833 214.876949) rotate(-315)">
     <text>
      <tspan x="0" y="-0.5625" style="font-style: oblique; font-size: 11.5px; font-family: 'DejaVu Sans'; fill: #394152">p</tspan>
      <tspan x="7.299805" y="1.162494" style="font-size: 8.05px; font-family: 'DejaVu Sans'; fill: #394152">4</tspan>
     </text>
    </g>
   </g>
   <g id="text_35">
    <!-- $p_5$ -->
    <g style="fill: #394152" transform="translate(746.423633 240.289375) rotate(-285)">
     <text>
      <tspan x="0" y="-0.5625" style="font-style: oblique; font-size: 11.5px; font-family: 'DejaVu Sans'; fill: #394152">p</tspan>
      <tspan x="7.299805" y="1.162494" style="font-size: 8.05px; font-family: 'DejaVu Sans'; fill: #394152">5</tspan>
     </text>
    </g>
   </g>
   <g id="patch_99">
    <path d="M 689.76 296.64 
C 698.925419 296.64 707.71668 292.99854 714.19761 286.51761 
C 720.67854 280.03668 724.32 271.245419 724.32 262.08 
C 724.32 252.914581 720.67854 244.12332 714.19761 237.64239 
C 707.71668 231.16146 698.925419 227.52 689.76 227.52 
C 680.594581 227.52 671.80332 231.16146 665.32239 237.64239 
C 658.84146 244.12332 655.2 252.914581 655.2 262.08 
C 655.2 271.245419 658.84146 280.03668 665.32239 286.51761 
C 671.80332 292.99854 680.594581 296.64 689.76 296.64 
z
" clip-path="url(#p1eded987b0)" style="fill: #f2f4f7"/>
   </g>
   <g id="text_36">
    <text style="font-weight: 600; font-size: 12.5px; font-family: 'DejaVu Sans', 'Bitstream Vera Sans', 'Computer Modern Sans Serif', 'Lucida Grande', 'Verdana', 'Geneva', 'Lucid', 'Arial', 'Helvetica', 'Avant Garde', sans-serif; text-anchor: middle; fill: #69717e" x="689.76" y="261.727559" transform="rotate(-0 689.76 261.727559)">null</text>
   </g>
   <g id="text_37">
    <!-- $p_{\varnothing}$ -->
    <g style="fill: #69717e" transform="translate(682.08 278.157187)">
     <text>
      <tspan x="0" y="-0.28125" style="font-style: oblique; font-size: 12px; font-family: 'DejaVu Sans'; fill: #69717e">p</tspan>
      <tspan x="7.617188" y="1.518744" style="font-size: 8.4px; font-family: 'DejaVu Sans'; fill: #69717e">∅</tspan>
     </text>
    </g>
   </g>
   <g id="text_38">
    <text style="font-weight: 600; font-size: 16px; font-family: 'DejaVu Sans', 'Bitstream Vera Sans', 'Computer Modern Sans Serif', 'Lucida Grande', 'Verdana', 'Geneva', 'Lucid', 'Arial', 'Helvetica', 'Avant Garde', sans-serif; text-anchor: middle; fill: #263142" x="689.76" y="163.996875" transform="rotate(-0 689.76 163.996875)">null-softmax</text>
   </g>
   <g id="patch_100">
    <path d="M 773.843906 262.08 
Q 789.122459 262.08 801.494123 262.08 
" clip-path="url(#p1eded987b0)" style="fill: none; stroke: #9aa9bd; stroke-width: 2.6; stroke-linecap: round"/>
    <path d="M 795.494123 259.08 
L 801.494123 262.08 
L 795.494123 265.08 
z
" clip-path="url(#p1eded987b0)" style="fill: #9aa9bd; stroke: #9aa9bd; stroke-width: 2.6; stroke-linecap: round"/>
   </g>
   <g id="patch_101">
    <path d="M 852.553039 187.90481 
Q 852.310901 188.084425 854.493239 186.465592 
" clip-path="url(#p1eded987b0)" style="fill: none; stroke: #7567d8; stroke-width: 2.7; stroke-linecap: round"/>
    <path d="M 860.218646 185.455785 
L 854.493239 186.465592 
L 857.120638 181.279382 
z
" clip-path="url(#p1eded987b0)" style="fill: #7567d8; stroke: #7567d8; stroke-width: 2.7; stroke-linecap: round"/>
   </g>
   <g id="patch_102">
    <path d="M 998.036151 246.683802 
Q 998.085559 246.98121 997.640253 244.30074 
" clip-path="url(#p1eded987b0)" style="fill: none; stroke: #7567d8; stroke-width: 2.7; stroke-linecap: round"/>
    <path d="M 999.352904 238.744948 
L 997.640253 244.30074 
L 994.22321 239.597143 
z
" clip-path="url(#p1eded987b0)" style="fill: #7567d8; stroke: #7567d8; stroke-width: 2.7; stroke-linecap: round"/>
   </g>
   <g id="text_39">
    <!-- per-layer / head $4\times12$ field -->
    <g style="fill: #263142" transform="translate(788.5475 152.348184)">
     <text>
      <tspan x="0" y="-0.21875" style="font-weight: 700; font-size: 15.5px; font-family: 'DejaVu Sans'; fill: #263142">p</tspan>
      <tspan x="11.095215" y="-0.21875" style="font-weight: 700; font-size: 15.5px; font-family: 'DejaVu Sans'; fill: #263142">e</tspan>
      <tspan x="21.607666" y="-0.21875" style="font-weight: 700; font-size: 15.5px; font-family: 'DejaVu Sans'; fill: #263142">r</tspan>
      <tspan x="29.251709" y="-0.21875" style="font-weight: 700; font-size: 15.5px; font-family: 'DejaVu Sans'; fill: #263142">-</tspan>
      <tspan x="35.684814" y="-0.21875" style="font-weight: 700; font-size: 15.5px; font-family: 'DejaVu Sans'; fill: #263142">l</tspan>
      <tspan x="40.997803" y="-0.21875" style="font-weight: 700; font-size: 15.5px; font-family: 'DejaVu Sans'; fill: #263142">a</tspan>
      <tspan x="51.457275" y="-0.21875" style="font-weight: 700; font-size: 15.5px; font-family: 'DejaVu Sans'; fill: #263142">y</tspan>
      <tspan x="61.561035" y="-0.21875" style="font-weight: 700; font-size: 15.5px; font-family: 'DejaVu Sans'; fill: #263142">e</tspan>
      <tspan x="72.073486" y="-0.21875" style="font-weight: 700; font-size: 15.5px; font-family: 'DejaVu Sans'; fill: #263142">r</tspan>
      <tspan x="79.717529" y="-0.21875" style="font-weight: 700; font-size: 15.5px; font-family: 'DejaVu Sans'; fill: #263142"> </tspan>
      <tspan x="85.11377" y="-0.21875" style="font-weight: 700; font-size: 15.5px; font-family: 'DejaVu Sans'; fill: #263142">/</tspan>
      <tspan x="90.774902" y="-0.21875" style="font-weight: 700; font-size: 15.5px; font-family: 'DejaVu Sans'; fill: #263142"> </tspan>
      <tspan x="96.171143" y="-0.21875" style="font-weight: 700; font-size: 15.5px; font-family: 'DejaVu Sans'; fill: #263142">h</tspan>
      <tspan x="107.205811" y="-0.21875" style="font-weight: 700; font-size: 15.5px; font-family: 'DejaVu Sans'; fill: #263142">e</tspan>
      <tspan x="117.718262" y="-0.21875" style="font-weight: 700; font-size: 15.5px; font-family: 'DejaVu Sans'; fill: #263142">a</tspan>
      <tspan x="128.177734" y="-0.21875" style="font-weight: 700; font-size: 15.5px; font-family: 'DejaVu Sans'; fill: #263142">d</tspan>
      <tspan x="139.272949" y="-0.21875" style="font-weight: 700; font-size: 15.5px; font-family: 'DejaVu Sans'; fill: #263142"> </tspan>
      <tspan x="193.280762" y="-0.21875" style="font-weight: 700; font-size: 15.5px; font-family: 'DejaVu Sans'; fill: #263142"> </tspan>
      <tspan x="198.677002" y="-0.21875" style="font-weight: 700; font-size: 15.5px; font-family: 'DejaVu Sans'; fill: #263142">f</tspan>
      <tspan x="205.42041" y="-0.21875" style="font-weight: 700; font-size: 15.5px; font-family: 'DejaVu Sans'; fill: #263142">i</tspan>
      <tspan x="210.733398" y="-0.21875" style="font-weight: 700; font-size: 15.5px; font-family: 'DejaVu Sans'; fill: #263142">e</tspan>
      <tspan x="221.24585" y="-0.21875" style="font-weight: 700; font-size: 15.5px; font-family: 'DejaVu Sans'; fill: #263142">l</tspan>
      <tspan x="226.558838" y="-0.21875" style="font-weight: 700; font-size: 15.5px; font-family: 'DejaVu Sans'; fill: #263142">d</tspan>
      <tspan x="144.669189" y="-0.21875" style="font-size: 15.5px; font-family: 'DejaVu Sans'; fill: #263142">4</tspan>
      <tspan x="157.550537" y="-0.21875" style="font-size: 15.5px; font-family: 'DejaVu Sans'; fill: #263142">×</tspan>
      <tspan x="173.557617" y="-0.21875" style="font-size: 15.5px; font-family: 'DejaVu Sans'; fill: #263142">1</tspan>
      <tspan x="183.419189" y="-0.21875" style="font-size: 15.5px; font-family: 'DejaVu Sans'; fill: #263142">2</tspan>
     </text>
    </g>
   </g>
   <g id="text_40">
    <!-- rotate by $\theta_a$ -->
    <g style="fill: #7567d8" transform="translate(868.525 367.763477)">
     <text>
      <tspan x="0" y="-0.015625" style="font-size: 13px; font-family: 'DejaVu Sans'; fill: #7567d8">r</tspan>
      <tspan x="5.344727" y="-0.015625" style="font-size: 13px; font-family: 'DejaVu Sans'; fill: #7567d8">o</tspan>
      <tspan x="13.29834" y="-0.015625" style="font-size: 13px; font-family: 'DejaVu Sans'; fill: #7567d8">t</tspan>
      <tspan x="18.395508" y="-0.015625" style="font-size: 13px; font-family: 'DejaVu Sans'; fill: #7567d8">a</tspan>
      <tspan x="26.361816" y="-0.015625" style="font-size: 13px; font-family: 'DejaVu Sans'; fill: #7567d8">t</tspan>
      <tspan x="31.458984" y="-0.015625" style="font-size: 13px; font-family: 'DejaVu Sans'; fill: #7567d8">e</tspan>
      <tspan x="39.457031" y="-0.015625" style="font-size: 13px; font-family: 'DejaVu Sans'; fill: #7567d8"> </tspan>
      <tspan x="43.589355" y="-0.015625" style="font-size: 13px; font-family: 'DejaVu Sans'; fill: #7567d8">b</tspan>
      <tspan x="51.841309" y="-0.015625" style="font-size: 13px; font-family: 'DejaVu Sans'; fill: #7567d8">y</tspan>
      <tspan x="59.534668" y="-0.015625" style="font-size: 13px; font-family: 'DejaVu Sans'; fill: #7567d8"> </tspan>
      <tspan x="63.666992" y="-0.015625" style="font-style: oblique; font-size: 13px; font-family: 'DejaVu Sans'; fill: #7567d8">θ</tspan>
      <tspan x="71.620605" y="1.934369" style="font-style: oblique; font-size: 9.1px; font-family: 'DejaVu Sans'; fill: #7567d8">a</tspan>
     </text>
    </g>
   </g>
   <g id="text_41">
    <text style="font-size: 11.5px; font-family: 'DejaVu Sans', 'Bitstream Vera Sans', 'Computer Modern Sans Serif', 'Lucida Grande', 'Verdana', 'Geneva', 'Lucid', 'Arial', 'Helvetica', 'Avant Garde', sans-serif; text-anchor: middle; fill: #667085" x="1016.64" y="231.227754" transform="rotate(-0 1016.64 231.227754)">weighted sum</text>
   </g>
   <g id="patch_103">
    <path d="M 988.397051 262.08 
Q 1016.637276 262.08 1041.970613 262.08 
" clip-path="url(#p1eded987b0)" style="fill: none; stroke: #9aa9bd; stroke-width: 2.6; stroke-linecap: round"/>
    <path d="M 1035.970613 259.08 
L 1041.970613 262.08 
L 1035.970613 265.08 
z
" clip-path="url(#p1eded987b0)" style="fill: #9aa9bd; stroke: #9aa9bd; stroke-width: 2.6; stroke-linecap: round"/>
   </g>
   <g id="text_42">
    <text style="font-weight: 600; font-size: 16px; font-family: 'DejaVu Sans', 'Bitstream Vera Sans', 'Computer Modern Sans Serif', 'Lucida Grande', 'Verdana', 'Geneva', 'Lucid', 'Arial', 'Helvetica', 'Avant Garde', sans-serif; text-anchor: middle; fill: #263142" x="1137.6" y="184.876875" transform="rotate(-0 1137.6 184.876875)">Center Look bias</text>
   </g>
   <g id="text_43">
    <!-- $B^{center}_{l,h}(q,k)$ -->
    <g style="fill: #e79b42" transform="translate(1098.75 346.29)">
     <text>
      <tspan x="0" y="-0.853125" style="font-style: oblique; font-size: 14px; font-family: 'DejaVu Sans'; fill: #e79b42">B</tspan>
      <tspan x="47.960436" y="-0.853125" style="font-style: oblique; font-size: 14px; font-family: 'DejaVu Sans'; fill: #e79b42">q</tspan>
      <tspan x="64.024889" y="-0.853125" style="font-style: oblique; font-size: 14px; font-family: 'DejaVu Sans'; fill: #e79b42">k</tspan>
      <tspan x="9.604492" y="3.970312" style="font-style: oblique; font-size: 9.8px; font-family: 'DejaVu Sans'; fill: #e79b42">l</tspan>
      <tspan x="10.586315" y="-7.120313" style="font-style: oblique; font-size: 9.8px; font-family: 'DejaVu Sans'; fill: #e79b42">c</tspan>
      <tspan x="15.974401" y="-7.120313" style="font-style: oblique; font-size: 9.8px; font-family: 'DejaVu Sans'; fill: #e79b42">e</tspan>
      <tspan x="17.35166" y="3.970312" style="font-style: oblique; font-size: 9.8px; font-family: 'DejaVu Sans'; fill: #e79b42">h</tspan>
      <tspan x="22.003698" y="-7.120313" style="font-style: oblique; font-size: 9.8px; font-family: 'DejaVu Sans'; fill: #e79b42">n</tspan>
      <tspan x="28.214831" y="-7.120313" style="font-style: oblique; font-size: 9.8px; font-family: 'DejaVu Sans'; fill: #e79b42">t</tspan>
      <tspan x="32.057311" y="-7.120313" style="font-style: oblique; font-size: 9.8px; font-family: 'DejaVu Sans'; fill: #e79b42">e</tspan>
      <tspan x="38.086608" y="-7.120313" style="font-style: oblique; font-size: 9.8px; font-family: 'DejaVu Sans'; fill: #e79b42">r</tspan>
      <tspan x="12.327246" y="3.970312" style="font-size: 9.8px; font-family: 'DejaVu Sans'; fill: #e79b42">,</tspan>
      <tspan x="42.498522" y="-0.853125" style="font-size: 14px; font-family: 'DejaVu Sans'; fill: #e79b42">(</tspan>
      <tspan x="56.847155" y="-0.853125" style="font-size: 14px; font-family: 'DejaVu Sans'; fill: #e79b42">,</tspan>
      <tspan x="72.132311" y="-0.853125" style="font-size: 14px; font-family: 'DejaVu Sans'; fill: #e79b42">)</tspan>
     </text>
    </g>
   </g>
   <g id="text_44">
    <text style="font-weight: 600; font-size: 14.5px; font-family: 'DejaVu Sans', 'Bitstream Vera Sans', 'Computer Modern Sans Serif', 'Lucida Grande', 'Verdana', 'Geneva', 'Lucid', 'Arial', 'Helvetica', 'Avant Garde', sans-serif; text-anchor: start; fill: #263142" x="57.6" y="409.847168" transform="rotate(-0 57.6 409.847168)">G4 probe sharing</text>
   </g>
   <g id="text_45">
    <text style="font-weight: 600; font-size: 12.5px; font-family: 'DejaVu Sans', 'Bitstream Vera Sans', 'Computer Modern Sans Serif', 'Lucida Grande', 'Verdana', 'Geneva', 'Lucid', 'Arial', 'Helvetica', 'Avant Garde', sans-serif; text-anchor: middle; fill: #e35d6a" x="274.32" y="426.607559" transform="rotate(-0 274.32 426.607559)">Probe bank 1</text>
   </g>
   <g id="text_46">
    <text style="font-size: 11.5px; font-family: 'DejaVu Sans', 'Bitstream Vera Sans', 'Computer Modern Sans Serif', 'Lucida Grande', 'Verdana', 'Geneva', 'Lucid', 'Arial', 'Helvetica', 'Avant Garde', sans-serif; text-anchor: middle; fill: #667085" x="274.32" y="440.747305" transform="rotate(-0 274.32 440.747305)">Layers 1–4</text>
   </g>
   <g id="text_47">
    <text style="font-weight: 600; font-size: 12.5px; font-family: 'DejaVu Sans', 'Bitstream Vera Sans', 'Computer Modern Sans Serif', 'Lucida Grande', 'Verdana', 'Geneva', 'Lucid', 'Arial', 'Helvetica', 'Avant Garde', sans-serif; text-anchor: middle; fill: #e35d6a" x="468.72" y="426.607559" transform="rotate(-0 468.72 426.607559)">Probe bank 2</text>
   </g>
   <g id="text_48">
    <text style="font-size: 11.5px; font-family: 'DejaVu Sans', 'Bitstream Vera Sans', 'Computer Modern Sans Serif', 'Lucida Grande', 'Verdana', 'Geneva', 'Lucid', 'Arial', 'Helvetica', 'Avant Garde', sans-serif; text-anchor: middle; fill: #667085" x="468.72" y="440.747305" transform="rotate(-0 468.72 440.747305)">Layers 5–8</text>
   </g>
   <g id="text_49">
    <text style="font-weight: 600; font-size: 12.5px; font-family: 'DejaVu Sans', 'Bitstream Vera Sans', 'Computer Modern Sans Serif', 'Lucida Grande', 'Verdana', 'Geneva', 'Lucid', 'Arial', 'Helvetica', 'Avant Garde', sans-serif; text-anchor: middle; fill: #e35d6a" x="663.12" y="426.607559" transform="rotate(-0 663.12 426.607559)">Probe bank 3</text>
   </g>
   <g id="text_50">
    <text style="font-size: 11.5px; font-family: 'DejaVu Sans', 'Bitstream Vera Sans', 'Computer Modern Sans Serif', 'Lucida Grande', 'Verdana', 'Geneva', 'Lucid', 'Arial', 'Helvetica', 'Avant Garde', sans-serif; text-anchor: middle; fill: #667085" x="663.12" y="440.747305" transform="rotate(-0 663.12 440.747305)">Layers 9–11</text>
   </g>
   <g id="text_51">
    <text style="font-size: 12.5px; font-family: 'DejaVu Sans', 'Bitstream Vera Sans', 'Computer Modern Sans Serif', 'Lucida Grande', 'Verdana', 'Geneva', 'Lucid', 'Arial', 'Helvetica', 'Avant Garde', sans-serif; text-anchor: start; fill: #4c8eda" x="784.8" y="425.887559" transform="rotate(-0 784.8 425.887559)">same initial tokens</text>
   </g>
   <g id="text_52">
    <text style="font-size: 12.5px; font-family: 'DejaVu Sans', 'Bitstream Vera Sans', 'Computer Modern Sans Serif', 'Lucida Grande', 'Verdana', 'Geneva', 'Lucid', 'Arial', 'Helvetica', 'Avant Garde', sans-serif; text-anchor: start; fill: #7567d8" x="784.8" y="441.727559" transform="rotate(-0 784.8 441.727559)">independent field per layer/head</text>
   </g>
   <g id="patch_104">
    <path d="M 148.408638 224.06915 
Q 179.280652 197.999449 206.735821 174.815084 
" clip-path="url(#p1eded987b0)" style="fill: none; stroke: #4c8eda; stroke-width: 4; stroke-linecap: round"/>
    <path d="M 200.216099 176.394079 
L 206.735821 174.815084 
L 204.087184 180.978259 
z
" clip-path="url(#p1eded987b0)" style="fill: #4c8eda; stroke: #4c8eda; stroke-width: 4; stroke-linecap: round"/>
   </g>
   <g id="patch_105">
    <path d="M 384.977994 230.630329 
Q 402.260237 226.263641 415.206607 222.992494 
" clip-path="url(#p1eded987b0)" style="fill: none; stroke: #e85d68; stroke-width: 4; stroke-linecap: round"/>
    <path d="M 408.654513 221.553725 
L 415.206607 222.992494 
L 410.124335 227.370908 
z
" clip-path="url(#p1eded987b0)" style="fill: #e85d68; stroke: #e85d68; stroke-width: 4; stroke-linecap: round"/>
   </g>
   <g id="patch_106">
    <path d="M 383.879244 229.300829 
Q 394.874148 205.467945 403.995653 185.695897 
" clip-path="url(#p1eded987b0)" style="fill: none; stroke: #ef9548; stroke-width: 4; stroke-linecap: round"/>
    <path d="M 398.758134 189.887364 
L 403.995653 185.695897 
L 404.206316 192.400792 
z
" clip-path="url(#p1eded987b0)" style="fill: #ef9548; stroke: #ef9548; stroke-width: 4; stroke-linecap: round"/>
   </g>
   <g id="patch_107">
    <path d="M 381.508005 229.832148 
Q 365.871462 216.687484 353.65818 206.420542 
" clip-path="url(#p1eded987b0)" style="fill: none; stroke: #d4ae32; stroke-width: 4; stroke-linecap: round"/>
    <path d="M 356.320532 212.577804 
L 353.65818 206.420542 
L 360.181401 207.985017 
z
" clip-path="url(#p1eded987b0)" style="fill: #d4ae32; stroke: #d4ae32; stroke-width: 4; stroke-linecap: round"/>
   </g>
   <g id="patch_108">
    <path d="M 381.038741 231.166065 
Q 356.295872 231.735594 336.023956 232.202211 
" clip-path="url(#p1eded987b0)" style="fill: none; stroke: #54a96b; stroke-width: 4; stroke-linecap: round"/>
    <path d="M 342.091403 235.063345 
L 336.023956 232.202211 
L 341.953332 229.064934 
z
" clip-path="url(#p1eded987b0)" style="fill: #54a96b; stroke: #54a96b; stroke-width: 4; stroke-linecap: round"/>
   </g>
   <g id="patch_109">
    <path d="M 382.800613 233.107635 
Q 381.234127 246.114215 380.202392 254.680747 
" clip-path="url(#p1eded987b0)" style="fill: none; stroke: #3aa2a6; stroke-width: 4; stroke-linecap: round"/>
    <path d="M 383.898311 249.082516 
L 380.202392 254.680747 
L 377.941359 248.365073 
z
" clip-path="url(#p1eded987b0)" style="fill: #3aa2a6; stroke: #3aa2a6; stroke-width: 4; stroke-linecap: round"/>
   </g>
   <g id="patch_110">
    <path d="M 383.682973 233.012028 
Q 389.71542 250.763245 394.308909 264.28015 
" clip-path="url(#p1eded987b0)" style="fill: none; stroke: #8a6bd6; stroke-width: 4; stroke-linecap: round"/>
    <path d="M 395.218807 257.633942 
L 394.308909 264.28015 
L 389.537881 259.564507 
z
" clip-path="url(#p1eded987b0)" style="fill: #8a6bd6; stroke: #8a6bd6; stroke-width: 4; stroke-linecap: round"/>
   </g>
   <g id="patch_111">
    <path d="M 907.2 268.56 
C 908.918516 268.56 910.566878 267.877226 911.782052 266.662052 
C 912.997226 265.446878 913.68 263.798516 913.68 262.08 
C 913.68 260.361484 912.997226 258.713122 911.782052 257.497948 
C 910.566878 256.282774 908.918516 255.6 907.2 255.6 
C 905.481484 255.6 903.833122 256.282774 902.617948 257.497948 
C 901.402774 258.713122 900.72 260.361484 900.72 262.08 
C 900.72 263.798516 901.402774 265.446878 902.617948 266.662052 
C 903.833122 267.877226 905.481484 268.56 907.2 268.56 
z
" clip-path="url(#p1eded987b0)" style="fill: #4f46a8; stroke: #ffffff; stroke-width: 1.2; stroke-linejoin: miter"/>
   </g>
   <g id="patch_112">
    <path d="M 998.463105 249.253807 
C 996.211806 233.234979 989.782168 218.087701 979.823071 205.340638 
C 969.863974 192.593576 956.722106 182.690468 941.723744 176.630736 
C 926.725382 170.571004 910.392635 168.565595 894.373807 170.816895 
C 878.354979 173.068194 863.207701 179.497832 850.460638 189.456929 
" clip-path="url(#p1eded987b0)" style="fill: none; stroke: #7567d8; stroke-width: 3; stroke-linejoin: miter"/>
   </g>
   <g id="patch_113">
    <path d="M 146.88 230.04 
C 148.121151 230.04 149.311634 229.546886 150.18926 228.66926 
C 151.066886 227.791634 151.56 226.601151 151.56 225.36 
C 151.56 224.118849 151.066886 222.928366 150.18926 222.05074 
C 149.311634 221.173114 148.121151 220.68 146.88 220.68 
C 145.638849 220.68 144.448366 221.173114 143.57074 222.05074 
C 142.693114 222.928366 142.2 224.118849 142.2 225.36 
C 142.2 226.601151 142.693114 227.791634 143.57074 228.66926 
C 144.448366 229.546886 145.638849 230.04 146.88 230.04 
z
" clip-path="url(#p1eded987b0)" style="fill: #4c8eda; stroke: #ffffff; stroke-width: 1.3; stroke-linejoin: miter"/>
   </g>
   <g id="patch_114">
    <path d="M 383.04 235.8 
C 384.281151 235.8 385.471634 235.306886 386.34926 234.42926 
C 387.226886 233.551634 387.72 232.361151 387.72 231.12 
C 387.72 229.878849 387.226886 228.688366 386.34926 227.81074 
C 385.471634 226.933114 384.281151 226.44 383.04 226.44 
C 381.798849 226.44 380.608366 226.933114 379.73074 227.81074 
C 378.853114 228.688366 378.36 229.878849 378.36 231.12 
C 378.36 232.361151 378.853114 233.551634 379.73074 234.42926 
C 380.608366 235.306886 381.798849 235.8 383.04 235.8 
z
" clip-path="url(#p1eded987b0)" style="fill: #e85d68; stroke: #ffffff; stroke-width: 1.3; stroke-linejoin: miter"/>
   </g>
   <g id="patch_115">
    <path d="M 383.04 235.8 
C 384.281151 235.8 385.471634 235.306886 386.34926 234.42926 
C 387.226886 233.551634 387.72 232.361151 387.72 231.12 
C 387.72 229.878849 387.226886 228.688366 386.34926 227.81074 
C 385.471634 226.933114 384.281151 226.44 383.04 226.44 
C 381.798849 226.44 380.608366 226.933114 379.73074 227.81074 
C 378.853114 228.688366 378.36 229.878849 378.36 231.12 
C 378.36 232.361151 378.853114 233.551634 379.73074 234.42926 
C 380.608366 235.306886 381.798849 235.8 383.04 235.8 
z
" clip-path="url(#p1eded987b0)" style="fill: #ef9548; stroke: #ffffff; stroke-width: 1.3; stroke-linejoin: miter"/>
   </g>
   <g id="patch_116">
    <path d="M 383.04 235.8 
C 384.281151 235.8 385.471634 235.306886 386.34926 234.42926 
C 387.226886 233.551634 387.72 232.361151 387.72 231.12 
C 387.72 229.878849 387.226886 228.688366 386.34926 227.81074 
C 385.471634 226.933114 384.281151 226.44 383.04 226.44 
C 381.798849 226.44 380.608366 226.933114 379.73074 227.81074 
C 378.853114 228.688366 378.36 229.878849 378.36 231.12 
C 378.36 232.361151 378.853114 233.551634 379.73074 234.42926 
C 380.608366 235.306886 381.798849 235.8 383.04 235.8 
z
" clip-path="url(#p1eded987b0)" style="fill: #d4ae32; stroke: #ffffff; stroke-width: 1.3; stroke-linejoin: miter"/>
   </g>
   <g id="patch_117">
    <path d="M 383.04 235.8 
C 384.281151 235.8 385.471634 235.306886 386.34926 234.42926 
C 387.226886 233.551634 387.72 232.361151 387.72 231.12 
C 387.72 229.878849 387.226886 228.688366 386.34926 227.81074 
C 385.471634 226.933114 384.281151 226.44 383.04 226.44 
C 381.798849 226.44 380.608366 226.933114 379.73074 227.81074 
C 378.853114 228.688366 378.36 229.878849 378.36 231.12 
C 378.36 232.361151 378.853114 233.551634 379.73074 234.42926 
C 380.608366 235.306886 381.798849 235.8 383.04 235.8 
z
" clip-path="url(#p1eded987b0)" style="fill: #54a96b; stroke: #ffffff; stroke-width: 1.3; stroke-linejoin: miter"/>
   </g>
   <g id="patch_118">
    <path d="M 383.04 235.8 
C 384.281151 235.8 385.471634 235.306886 386.34926 234.42926 
C 387.226886 233.551634 387.72 232.361151 387.72 231.12 
C 387.72 229.878849 387.226886 228.688366 386.34926 227.81074 
C 385.471634 226.933114 384.281151 226.44 383.04 226.44 
C 381.798849 226.44 380.608366 226.933114 379.73074 227.81074 
C 378.853114 228.688366 378.36 229.878849 378.36 231.12 
C 378.36 232.361151 378.853114 233.551634 379.73074 234.42926 
C 380.608366 235.306886 381.798849 235.8 383.04 235.8 
z
" clip-path="url(#p1eded987b0)" style="fill: #3aa2a6; stroke: #ffffff; stroke-width: 1.3; stroke-linejoin: miter"/>
   </g>
   <g id="patch_119">
    <path d="M 383.04 235.8 
C 384.281151 235.8 385.471634 235.306886 386.34926 234.42926 
C 387.226886 233.551634 387.72 232.361151 387.72 231.12 
C 387.72 229.878849 387.226886 228.688366 386.34926 227.81074 
C 385.471634 226.933114 384.281151 226.44 383.04 226.44 
C 381.798849 226.44 380.608366 226.933114 379.73074 227.81074 
C 378.853114 228.688366 378.36 229.878849 378.36 231.12 
C 378.36 232.361151 378.853114 233.551634 379.73074 234.42926 
C 380.608366 235.306886 381.798849 235.8 383.04 235.8 
z
" clip-path="url(#p1eded987b0)" style="fill: #8a6bd6; stroke: #ffffff; stroke-width: 1.3; stroke-linejoin: miter"/>
   </g>
  </g>
 </g>
 <defs>
  <clipPath id="p1eded987b0">
   <rect x="0" y="0" width="1238.4" height="518.4"/>
  </clipPath>
 </defs>
</svg>
